<svg width="32" height="32" viewBox="0 0 32 32" fill="none" xmlns="http://www.w3.org/2000/svg">
<path d="M10 10H6.09C3.83 10 2 8.17 2 5.91V4.62C2 4.28 2.28 4 2.62 4H5.9C8.17 4 10 5.83 10 8.09V10Z" fill="url(#paint0_linear_2023_949)"/>
<path d="M10 10H6.09C3.83 10 2 8.17 2 5.91V4.62C2 4.28 2.28 4 2.62 4H5.9C8.17 4 10 5.83 10 8.09V10Z" fill="url(#paint1_linear_2023_949)"/>
<path d="M10 10H6.09C3.83 10 2 8.17 2 5.91V4.62C2 4.28 2.28 4 2.62 4H5.9C8.17 4 10 5.83 10 8.09V10Z" fill="url(#paint2_radial_2023_949)"/>
<path d="M16.0001 29.9895C19.1205 29.9895 21.6501 27.4599 21.6501 24.3395C21.6501 21.219 19.1205 18.6895 16.0001 18.6895C12.8797 18.6895 10.3501 21.219 10.3501 24.3395C10.3501 27.4599 12.8797 29.9895 16.0001 29.9895Z" fill="url(#paint3_radial_2023_949)"/>
<path d="M14.1304 6.23973C13.4504 5.05973 13.4404 3.67973 13.9804 2.53973C14.1204 2.22973 13.8204 1.90973 13.5104 2.02973C13.2604 2.12973 13.0204 2.24973 12.7904 2.40973C11.0904 3.52973 10.5104 5.78973 11.4504 7.58973C12.5104 9.61973 15.0304 10.3397 17.0004 9.19973C17.4604 8.92973 17.8504 8.58973 18.1504 8.19973C16.5804 8.41973 14.9704 7.68973 14.1304 6.23973Z" fill="url(#paint4_linear_2023_949)"/>
<path d="M14.1304 6.23973C13.4504 5.05973 13.4404 3.67973 13.9804 2.53973C14.1204 2.22973 13.8204 1.90973 13.5104 2.02973C13.2604 2.12973 13.0204 2.24973 12.7904 2.40973C11.0904 3.52973 10.5104 5.78973 11.4504 7.58973C12.5104 9.61973 15.0304 10.3397 17.0004 9.19973C17.4604 8.92973 17.8504 8.58973 18.1504 8.19973C16.5804 8.41973 14.9704 7.68973 14.1304 6.23973Z" fill="url(#paint5_linear_2023_949)"/>
<path d="M14.1304 6.23973C13.4504 5.05973 13.4404 3.67973 13.9804 2.53973C14.1204 2.22973 13.8204 1.90973 13.5104 2.02973C13.2604 2.12973 13.0204 2.24973 12.7904 2.40973C11.0904 3.52973 10.5104 5.78973 11.4504 7.58973C12.5104 9.61973 15.0304 10.3397 17.0004 9.19973C17.4604 8.92973 17.8504 8.58973 18.1504 8.19973C16.5804 8.41973 14.9704 7.68973 14.1304 6.23973Z" fill="url(#paint6_radial_2023_949)"/>
<path d="M18.8701 6.23973C19.5501 5.05973 19.5601 3.67973 19.0201 2.53973C18.8801 2.22973 19.1801 1.90973 19.4901 2.02973C19.7401 2.12973 19.9801 2.24973 20.2101 2.40973C21.9101 3.52973 22.4901 5.78973 21.5501 7.58973C20.4901 9.61973 17.9701 10.3397 16.0001 9.19973C15.5401 8.92973 15.1501 8.58973 14.8501 8.19973C16.4201 8.41973 18.0301 7.68973 18.8701 6.23973Z" fill="url(#paint7_linear_2023_949)"/>
<path d="M18.8701 6.23973C19.5501 5.05973 19.5601 3.67973 19.0201 2.53973C18.8801 2.22973 19.1801 1.90973 19.4901 2.02973C19.7401 2.12973 19.9801 2.24973 20.2101 2.40973C21.9101 3.52973 22.4901 5.78973 21.5501 7.58973C20.4901 9.61973 17.9701 10.3397 16.0001 9.19973C15.5401 8.92973 15.1501 8.58973 14.8501 8.19973C16.4201 8.41973 18.0301 7.68973 18.8701 6.23973Z" fill="url(#paint8_linear_2023_949)"/>
<path d="M18.8701 6.23973C19.5501 5.05973 19.5601 3.67973 19.0201 2.53973C18.8801 2.22973 19.1801 1.90973 19.4901 2.02973C19.7401 2.12973 19.9801 2.24973 20.2101 2.40973C21.9101 3.52973 22.4901 5.78973 21.5501 7.58973C20.4901 9.61973 17.9701 10.3397 16.0001 9.19973C15.5401 8.92973 15.1501 8.58973 14.8501 8.19973C16.4201 8.41973 18.0301 7.68973 18.8701 6.23973Z" fill="url(#paint9_radial_2023_949)"/>
<path d="M19.7237 6H11.3125C8.74252 6 7 8.4375 7 10.69V22.47H25V10.69C25 8.1 22.6375 6 19.7237 6Z" fill="url(#paint10_linear_2023_949)"/>
<path d="M19.7237 6H11.3125C8.74252 6 7 8.4375 7 10.69V22.47H25V10.69C25 8.1 22.6375 6 19.7237 6Z" fill="url(#paint11_linear_2023_949)"/>
<path d="M19.7237 6H11.3125C8.74252 6 7 8.4375 7 10.69V22.47H25V10.69C25 8.1 22.6375 6 19.7237 6Z" fill="url(#paint12_linear_2023_949)"/>
<path d="M19.7237 6H11.3125C8.74252 6 7 8.4375 7 10.69V22.47H25V10.69C25 8.1 22.6375 6 19.7237 6Z" fill="url(#paint13_radial_2023_949)"/>
<path d="M19.7237 6H11.3125C8.74252 6 7 8.4375 7 10.69V22.47H25V10.69C25 8.1 22.6375 6 19.7237 6Z" fill="url(#paint14_radial_2023_949)"/>
<path d="M5.91 5.5C7.08 5.5 8.08 6.28 8.39 7.35C8.05 7.69 7.77 8.08 7.54 8.5H6.09C4.66 8.5 3.5 7.34 3.5 5.91V5.71C3.5 5.59 3.59 5.5 3.71 5.5H5.91Z" fill="url(#paint15_radial_2023_949)"/>
<path d="M5.91 5.5C7.08 5.5 8.08 6.28 8.39 7.35C8.05 7.69 7.77 8.08 7.54 8.5H6.09C4.66 8.5 3.5 7.34 3.5 5.91V5.71C3.5 5.59 3.59 5.5 3.71 5.5H5.91Z" fill="url(#paint16_radial_2023_949)"/>
<path d="M22 10H25.91C28.17 10 30 8.17 30 5.91V4.62C30 4.28 29.72 4 29.37 4H26.09C23.83 4 22 5.83 22 8.09V10Z" fill="url(#paint17_linear_2023_949)"/>
<path d="M22 10H25.91C28.17 10 30 8.17 30 5.91V4.62C30 4.28 29.72 4 29.37 4H26.09C23.83 4 22 5.83 22 8.09V10Z" fill="url(#paint18_linear_2023_949)"/>
<path d="M22 10H25.91C28.17 10 30 8.17 30 5.91V4.62C30 4.28 29.72 4 29.37 4H26.09C23.83 4 22 5.83 22 8.09V10Z" fill="url(#paint19_radial_2023_949)"/>
<path d="M22.3 10H24.95C24.62 7.74 22.67 6 20.31 6H16L18.38 8.38C19.42 9.42 20.83 10 22.3 10Z" fill="url(#paint20_radial_2023_949)"/>
<path d="M16 18.4601V13.9501C16 10.6738 12.2305 6.45508 9.4805 6.45508C8.36331 6.99454 7 8.50194 7 10.5101V20.0001L16 18.4601Z" fill="url(#paint21_linear_2023_949)"/>
<path d="M16 18.4601V13.9501C16 10.6738 12.2305 6.45508 9.4805 6.45508C8.36331 6.99454 7 8.50194 7 10.5101V20.0001L16 18.4601Z" fill="url(#paint22_linear_2023_949)"/>
<path d="M16 18.4601V13.9501C16 10.6738 12.2305 6.45508 9.4805 6.45508C8.36331 6.99454 7 8.50194 7 10.5101V20.0001L16 18.4601Z" fill="url(#paint23_radial_2023_949)"/>
<path d="M26 22.4211C25.96 19.4111 23.47 16.9911 20.48 17.0011H11.72C11.68 17.0011 11.65 17.0011 11.61 17.0011C8.57999 16.9411 6.03999 19.3911 5.99999 22.4211C5.95999 25.5011 8.43999 28.0011 11.5 28.0011H20.5C23.56 28.0011 26.04 25.5011 26 22.4211Z" fill="url(#paint24_linear_2023_949)"/>
<path d="M26 22.4211C25.96 19.4111 23.47 16.9911 20.48 17.0011H11.72C11.68 17.0011 11.65 17.0011 11.61 17.0011C8.57999 16.9411 6.03999 19.3911 5.99999 22.4211C5.95999 25.5011 8.43999 28.0011 11.5 28.0011H20.5C23.56 28.0011 26.04 25.5011 26 22.4211Z" fill="url(#paint25_radial_2023_949)"/>
<path d="M26 22.4211C25.96 19.4111 23.47 16.9911 20.48 17.0011H11.72C11.68 17.0011 11.65 17.0011 11.61 17.0011C8.57999 16.9411 6.03999 19.3911 5.99999 22.4211C5.95999 25.5011 8.43999 28.0011 11.5 28.0011H20.5C23.56 28.0011 26.04 25.5011 26 22.4211Z" fill="url(#paint26_linear_2023_949)"/>
<path d="M26 22.4211C25.96 19.4111 23.47 16.9911 20.48 17.0011H11.72C11.68 17.0011 11.65 17.0011 11.61 17.0011C8.57999 16.9411 6.03999 19.3911 5.99999 22.4211C5.95999 25.5011 8.43999 28.0011 11.5 28.0011H20.5C23.56 28.0011 26.04 25.5011 26 22.4211Z" fill="url(#paint27_radial_2023_949)"/>
<path d="M26.0899 5.5C24.9199 5.5 23.9199 6.28 23.6099 7.35C23.9499 7.68 24.2399 8.07 24.4599 8.5H25.9099C27.3399 8.5 28.4999 7.34 28.4999 5.91V5.71C28.4999 5.59 28.4099 5.5 28.2899 5.5H26.0899Z" fill="#F4B9A8"/>
<path d="M26.0899 5.5C24.9199 5.5 23.9199 6.28 23.6099 7.35C23.9499 7.68 24.2399 8.07 24.4599 8.5H25.9099C27.3399 8.5 28.4999 7.34 28.4999 5.91V5.71C28.4999 5.59 28.4099 5.5 28.2899 5.5H26.0899Z" fill="url(#paint28_radial_2023_949)"/>
<path d="M13 22C13.5523 22 14 21.5523 14 21C14 20.4477 13.5523 20 13 20C12.4477 20 12 20.4477 12 21C12 21.5523 12.4477 22 13 22Z" fill="url(#paint29_radial_2023_949)"/>
<path d="M19 22C19.5523 22 20 21.5523 20 21C20 20.4477 19.5523 20 19 20C18.4477 20 18 20.4477 18 21C18 21.5523 18.4477 22 19 22Z" fill="url(#paint30_radial_2023_949)"/>
<rect x="11.25" y="13" width="1.5" height="3" rx="0.75" fill="url(#paint31_linear_2023_949)"/>
<rect x="11.25" y="13" width="1.5" height="3" rx="0.75" fill="url(#paint32_linear_2023_949)"/>
<rect x="11.25" y="13" width="1.5" height="3" rx="0.75" fill="url(#paint33_linear_2023_949)"/>
<rect x="19.25" y="13" width="1.5" height="3" rx="0.75" fill="url(#paint34_linear_2023_949)"/>
<rect x="19.25" y="13" width="1.5" height="3" rx="0.75" fill="url(#paint35_linear_2023_949)"/>
<rect x="19.25" y="13" width="1.5" height="3" rx="0.75" fill="url(#paint36_linear_2023_949)"/>
<rect x="19.25" y="13" width="1.5" height="3" rx="0.75" fill="url(#paint37_radial_2023_949)"/>
<defs>
<linearGradient id="paint0_linear_2023_949" x1="4.78125" y1="8.28744" x2="7.09375" y2="5.63119" gradientUnits="userSpaceOnUse">
<stop stop-color="#626061"/>
<stop offset="1" stop-color="#727273"/>
</linearGradient>
<linearGradient id="paint1_linear_2023_949" x1="6.3125" y1="10.6312" x2="6.3125" y2="7.56869" gradientUnits="userSpaceOnUse">
<stop stop-color="#5F4478"/>
<stop offset="1" stop-color="#5C4C69" stop-opacity="0"/>
</linearGradient>
<radialGradient id="paint2_radial_2023_949" cx="0" cy="0" r="1" gradientUnits="userSpaceOnUse" gradientTransform="translate(8.625 5.59994) rotate(144.583) scale(1.72555 3.09061)">
<stop stop-color="#878688"/>
<stop offset="1" stop-color="#878688" stop-opacity="0"/>
</radialGradient>
<radialGradient id="paint3_radial_2023_949" cx="0" cy="0" r="1" gradientUnits="userSpaceOnUse" gradientTransform="translate(16.0001 28.3745) rotate(90) scale(1.0625 4.52952)">
<stop stop-color="#D04568"/>
<stop offset="1" stop-color="#DA6585"/>
</radialGradient>
<linearGradient id="paint4_linear_2023_949" x1="11.3754" y1="-0.150331" x2="11.3754" y2="7.72467" gradientUnits="userSpaceOnUse">
<stop stop-color="#F2C48F"/>
<stop offset="1" stop-color="#CC9E6B"/>
</linearGradient>
<linearGradient id="paint5_linear_2023_949" x1="10.6254" y1="7.41217" x2="12.5316" y2="5.87234" gradientUnits="userSpaceOnUse">
<stop stop-color="#CB9964"/>
<stop offset="1" stop-color="#CB9964" stop-opacity="0"/>
</linearGradient>
<radialGradient id="paint6_radial_2023_949" cx="0" cy="0" r="1" gradientUnits="userSpaceOnUse" gradientTransform="translate(13.42 4.60724) rotate(18.1755) scale(3.39202 5.54097)">
<stop offset="0.0260417" stop-color="#D9AE7F" stop-opacity="0"/>
<stop offset="0.442708" stop-color="#FFE3BF" stop-opacity="0.8"/>
<stop offset="0.734375" stop-color="#F4D3AC" stop-opacity="0.8"/>
<stop offset="1" stop-color="#D9AE7F" stop-opacity="0"/>
</radialGradient>
<linearGradient id="paint7_linear_2023_949" x1="21.6251" y1="-0.150331" x2="21.6251" y2="7.72467" gradientUnits="userSpaceOnUse">
<stop stop-color="#F2C48F"/>
<stop offset="1" stop-color="#CC9E6B"/>
</linearGradient>
<linearGradient id="paint8_linear_2023_949" x1="22.3751" y1="7.41217" x2="20.4688" y2="5.87234" gradientUnits="userSpaceOnUse">
<stop stop-color="#CB9964"/>
<stop offset="1" stop-color="#CB9964" stop-opacity="0"/>
</linearGradient>
<radialGradient id="paint9_radial_2023_949" cx="0" cy="0" r="1" gradientUnits="userSpaceOnUse" gradientTransform="translate(19.5805 4.60724) rotate(161.825) scale(3.39202 5.54097)">
<stop offset="0.0260417" stop-color="#D9AE7F" stop-opacity="0"/>
<stop offset="0.442708" stop-color="#FFE3BF" stop-opacity="0.8"/>
<stop offset="0.734375" stop-color="#F4D3AC" stop-opacity="0.8"/>
<stop offset="1" stop-color="#D9AE7F" stop-opacity="0"/>
</radialGradient>
<linearGradient id="paint10_linear_2023_949" x1="11.625" y1="18.7874" x2="28.375" y2="18.7874" gradientUnits="userSpaceOnUse">
<stop stop-color="#D4D1D7"/>
<stop offset="1" stop-color="#FBF6FF"/>
</linearGradient>
<linearGradient id="paint11_linear_2023_949" x1="23" y1="18.7874" x2="25.75" y2="18.7874" gradientUnits="userSpaceOnUse">
<stop stop-color="#D4D1D7" stop-opacity="0"/>
<stop offset="1" stop-color="#D4D1D7"/>
</linearGradient>
<linearGradient id="paint12_linear_2023_949" x1="14.8437" y1="8.88119" x2="12.4062" y2="5.47494" gradientUnits="userSpaceOnUse">
<stop stop-color="#C3C0C7" stop-opacity="0"/>
<stop offset="1" stop-color="#BCB7C0"/>
</linearGradient>
<radialGradient id="paint13_radial_2023_949" cx="0" cy="0" r="1" gradientUnits="userSpaceOnUse" gradientTransform="translate(10.8125 7.03744) rotate(45.924) scale(5.48079 4.69199)">
<stop stop-color="#D4D1D7"/>
<stop offset="1" stop-color="#D4D1D7" stop-opacity="0"/>
</radialGradient>
<radialGradient id="paint14_radial_2023_949" cx="0" cy="0" r="1" gradientUnits="userSpaceOnUse" gradientTransform="translate(19.5603 14.8017) rotate(88.4434) scale(1.90156 1.04307)">
<stop offset="0.270833" stop-color="#766176"/>
<stop offset="1" stop-color="#E1DFE4" stop-opacity="0"/>
</radialGradient>
<radialGradient id="paint15_radial_2023_949" cx="0" cy="0" r="1" gradientUnits="userSpaceOnUse" gradientTransform="translate(5.10937 7.95931) rotate(-150.627) scale(3.28118 2.21991)">
<stop stop-color="#FFB6AE"/>
<stop offset="1" stop-color="#E58082"/>
</radialGradient>
<radialGradient id="paint16_radial_2023_949" cx="0" cy="0" r="1" gradientUnits="userSpaceOnUse" gradientTransform="translate(6.1875 5.22494) rotate(97.7793) scale(1.79155 2.89642)">
<stop stop-color="#DB7376"/>
<stop offset="1" stop-color="#DB7376" stop-opacity="0"/>
</radialGradient>
<linearGradient id="paint17_linear_2023_949" x1="24.7813" y1="8.28744" x2="27.0937" y2="5.63119" gradientUnits="userSpaceOnUse">
<stop stop-color="#626061"/>
<stop offset="1" stop-color="#727273"/>
</linearGradient>
<linearGradient id="paint18_linear_2023_949" x1="26.3125" y1="10.3812" x2="26.3125" y2="7.50619" gradientUnits="userSpaceOnUse">
<stop stop-color="#5C4C69"/>
<stop offset="1" stop-color="#5C4C69" stop-opacity="0"/>
</linearGradient>
<radialGradient id="paint19_radial_2023_949" cx="0" cy="0" r="1" gradientUnits="userSpaceOnUse" gradientTransform="translate(28.8281 5.28744) rotate(141.017) scale(4.32169 1.46602)">
<stop stop-color="#878688"/>
<stop offset="1" stop-color="#878688" stop-opacity="0"/>
</radialGradient>
<radialGradient id="paint20_radial_2023_949" cx="0" cy="0" r="1" gradientUnits="userSpaceOnUse" gradientTransform="translate(20.875 10) rotate(-82.9251) scale(3.55211 4.10627)">
<stop stop-color="#8C8B8D"/>
<stop offset="1" stop-color="#747474"/>
</radialGradient>
<linearGradient id="paint21_linear_2023_949" x1="16.375" y1="11.7051" x2="9.56253" y2="11.7051" gradientUnits="userSpaceOnUse">
<stop stop-color="#706973"/>
<stop offset="1" stop-color="#6B696D"/>
</linearGradient>
<linearGradient id="paint22_linear_2023_949" x1="8.75003" y1="16.9715" x2="5.43753" y2="16.9715" gradientUnits="userSpaceOnUse">
<stop stop-color="#828183" stop-opacity="0"/>
<stop offset="0.895833" stop-color="#828183"/>
<stop offset="1" stop-color="#828183"/>
</linearGradient>
<radialGradient id="paint23_radial_2023_949" cx="0" cy="0" r="1" gradientUnits="userSpaceOnUse" gradientTransform="translate(11.3488 14.6938) rotate(88.6108) scale(1.52458 0.694426)">
<stop stop-color="#453E4D"/>
<stop offset="1" stop-color="#4E4854" stop-opacity="0"/>
</radialGradient>
<linearGradient id="paint24_linear_2023_949" x1="6.5625" y1="21.0999" x2="20.3125" y2="21.0999" gradientUnits="userSpaceOnUse">
<stop stop-color="#E7A8A9"/>
<stop offset="1" stop-color="#F3B9AD"/>
</linearGradient>
<radialGradient id="paint25_radial_2023_949" cx="0" cy="0" r="1" gradientUnits="userSpaceOnUse" gradientTransform="translate(17.125 19.9749) rotate(93.2809) scale(9.82861 20.8182)">
<stop offset="0.431515" stop-color="#D17DAE" stop-opacity="0"/>
<stop offset="1" stop-color="#CE79AD"/>
</radialGradient>
<linearGradient id="paint26_linear_2023_949" x1="16.5625" y1="23.9749" x2="16.5625" y2="29.4124" gradientUnits="userSpaceOnUse">
<stop offset="0.431515" stop-color="#D17DAE" stop-opacity="0"/>
<stop offset="1" stop-color="#AD618F"/>
</linearGradient>
<radialGradient id="paint27_radial_2023_949" cx="0" cy="0" r="1" gradientUnits="userSpaceOnUse" gradientTransform="translate(22.7635 20.2379) rotate(135.081) scale(4.57885 5.4958)">
<stop stop-color="#FFE7E0"/>
<stop offset="1" stop-color="#FFD9CF" stop-opacity="0"/>
</radialGradient>
<radialGradient id="paint28_radial_2023_949" cx="0" cy="0" r="1" gradientUnits="userSpaceOnUse" gradientTransform="translate(24.0624 8.03744) rotate(-31.4045) scale(4.8696 1.83808)">
<stop stop-color="#FFB6AE"/>
<stop offset="0.930921" stop-color="#E58082"/>
</radialGradient>
<radialGradient id="paint29_radial_2023_949" cx="0" cy="0" r="1" gradientUnits="userSpaceOnUse" gradientTransform="translate(12.3438 21) scale(1.15625)">
<stop stop-color="#FFA0A8"/>
<stop offset="1" stop-color="#FE7883"/>
</radialGradient>
<radialGradient id="paint30_radial_2023_949" cx="0" cy="0" r="1" gradientUnits="userSpaceOnUse" gradientTransform="translate(18.4844 21) scale(1.10938)">
<stop stop-color="#FFA0A8"/>
<stop offset="1" stop-color="#FE7883"/>
</radialGradient>
<linearGradient id="paint31_linear_2023_949" x1="12.75" y1="14.5" x2="11.8817" y2="14.5" gradientUnits="userSpaceOnUse">
<stop offset="0.307292" stop-color="#615154"/>
<stop offset="1" stop-color="#392833"/>
</linearGradient>
<linearGradient id="paint32_linear_2023_949" x1="12.9844" y1="16.0436" x2="12.9844" y2="14.6344" gradientUnits="userSpaceOnUse">
<stop stop-color="#552D52"/>
<stop offset="1" stop-color="#552D52" stop-opacity="0"/>
</linearGradient>
<linearGradient id="paint33_linear_2023_949" x1="10.7538" y1="15.2071" x2="11.5513" y2="15.2071" gradientUnits="userSpaceOnUse">
<stop stop-color="#594C4F"/>
<stop offset="1" stop-color="#594C4F" stop-opacity="0"/>
</linearGradient>
<linearGradient id="paint34_linear_2023_949" x1="20.75" y1="14.5" x2="19.8817" y2="14.5" gradientUnits="userSpaceOnUse">
<stop offset="0.225" stop-color="#594C4F"/>
<stop offset="1" stop-color="#392833"/>
</linearGradient>
<linearGradient id="paint35_linear_2023_949" x1="20.9844" y1="16.0436" x2="20.9844" y2="14.6344" gradientUnits="userSpaceOnUse">
<stop stop-color="#552D52"/>
<stop offset="1" stop-color="#552D52" stop-opacity="0"/>
</linearGradient>
<linearGradient id="paint36_linear_2023_949" x1="18.7538" y1="15.2071" x2="19.7873" y2="15.2071" gradientUnits="userSpaceOnUse">
<stop stop-color="#594C4F"/>
<stop offset="1" stop-color="#594C4F" stop-opacity="0"/>
</linearGradient>
<radialGradient id="paint37_radial_2023_949" cx="0" cy="0" r="1" gradientUnits="userSpaceOnUse" gradientTransform="translate(20.2919 14.6796) rotate(-109.485) scale(1.73469 1.68629)">
<stop offset="0.813951" stop-color="#594C4F" stop-opacity="0"/>
<stop offset="1" stop-color="#594C4F"/>
</radialGradient>
</defs>
</svg>
