<svg width="144" height="20" viewBox="0 0 144 20" fill="none" xmlns="http://www.w3.org/2000/svg">
<g clip-path="url(#clip0_2023_1116)">
<path d="M13.1912 10.8188C12.6937 12.1949 12.1994 13.5726 11.6969 14.9472C11.3005 16.0344 10.4767 16.5612 9.1683 16.5772C7.95784 16.5915 7.26777 16.1254 6.85504 14.9855C6.30364 13.4593 5.76366 11.9283 5.05402 10.4244C5.05402 12.7584 5.05402 15.0925 5.05402 17.4265C5.05402 18.9048 4.69023 19.3087 3.18938 19.4987C2.93488 19.5306 2.67713 19.5545 2.42101 19.5593C0.434013 19.5976 0.053906 19.2337 0.0473806 17.3131C0.0326984 12.5317 0.0163848 7.75038 7.12065e-05 2.969C-0.00645423 1.25281 0.434013 0.657338 1.94302 0.338047C3.70652 -0.0355228 5.05565 0.505675 5.64946 1.90097C6.78326 4.56705 7.8779 7.24909 8.99212 9.93273C9.31839 9.87366 9.29881 9.57831 9.39017 9.37237C10.4571 6.95694 11.5175 4.53831 12.5795 2.12128C13.4441 0.151262 16.5959 -0.482529 18.2011 0.990996C18.6269 1.38213 18.7982 1.85947 18.7884 2.42461C18.7085 7.58275 18.6367 12.7409 18.5568 17.899C18.5437 18.7228 18.1343 19.2656 17.2827 19.43C16.9368 19.4971 16.5877 19.5609 16.237 19.5753C13.8242 19.6743 13.3707 19.2464 13.3707 16.8996C13.3707 14.8865 13.3707 12.8734 13.3707 10.8603L13.1912 10.8204V10.8188Z" fill="url(#paint0_linear_2023_1116)"/>
<path d="M75.5252 7.86053C76.4893 7.86053 77.4551 7.83658 78.4192 7.86531C79.9103 7.91161 80.7455 8.72261 80.7521 10.1706C80.7586 11.3935 80.801 12.618 80.5449 13.836C79.9641 16.6043 78.3719 18.4562 75.579 19.2815C73.6345 19.8563 71.6556 19.9824 69.6768 19.5641C67.3162 19.066 65.5233 17.7697 64.4711 15.6113C63.1987 13.0027 62.8528 10.2456 63.4629 7.43587C64.4499 2.88758 67.8627 0.277377 72.6295 0.30292C74.6133 0.314095 76.5203 0.694051 78.2626 1.6615C79.801 2.5156 80.1517 3.5517 79.3328 4.72829C78.3882 6.08687 76.3066 6.7015 75.3343 5.75161C74.8025 5.23117 74.1059 4.96456 73.3588 4.86718C70.9655 4.55427 69.5756 5.52811 69.1107 7.89405C68.773 9.61024 68.7371 11.3392 69.326 13.0155C70.0536 15.0845 72.3212 15.8188 74.1989 14.6343C74.4991 14.4443 74.7617 14.208 74.9281 13.8951C75.1679 13.4417 75.4159 12.8989 75.1826 12.4631C74.982 12.0879 74.4175 12.3577 74.0146 12.3402C73.7274 12.3274 73.4371 12.3593 73.1467 12.3737C72.2723 12.42 71.4337 12.3434 71.0096 11.4494C70.5626 10.509 70.5626 9.55276 71.1385 8.65077C71.4533 8.15587 71.946 7.95631 72.5366 7.95951C73.592 7.88926 74.5301 7.86212 75.5268 7.86212C75.5268 7.83019 75.5268 7.89405 75.5268 7.86212L75.5252 7.86053Z" fill="url(#paint1_linear_2023_1116)"/>
<path d="M38.2633 9.88156C38.2714 11.1332 38.1458 12.313 37.8864 13.4879C36.8521 18.1783 33.3023 20.0334 28.8617 19.6838C24.5501 19.3437 21.842 16.6904 21.0997 12.3433C20.7327 10.2024 20.873 8.07278 21.4864 5.99261C22.4097 2.86356 24.4864 0.909501 27.8275 0.452916C32.622 -0.201629 36.2893 1.32139 37.7853 6.02453C38.1882 7.29212 38.3204 8.60759 38.2633 9.88156ZM26.8911 9.98852C26.8829 11.2545 26.9694 12.5109 27.511 13.6811C27.9221 14.5719 28.5795 15.1515 29.666 15.1163C30.746 15.0812 31.4067 14.4889 31.7134 13.555C32.4883 11.1922 32.5176 8.79438 31.7835 6.42045C31.436 5.29655 30.728 4.83198 29.6823 4.81442C28.5779 4.79527 27.8666 5.2758 27.4245 6.37096C26.9547 7.53318 26.9009 8.75926 26.8911 9.98852Z" fill="url(#paint2_linear_2023_1116)"/>
<path d="M111.998 9.97557C111.998 7.52023 111.993 5.06648 111.999 2.61114C112.003 1.20147 112.59 0.473487 114.039 0.387279C116.673 0.230826 119.313 0.25637 121.886 0.946037C124.796 1.7267 126.649 3.54666 127.331 6.4522C127.802 8.46533 127.949 10.4976 127.537 12.5315C126.78 16.272 124.21 18.2691 120.626 19.1951C118.693 19.6948 116.704 19.8608 114.703 19.7794C112.678 19.6964 111.999 19.0083 111.998 17.0558C111.996 14.6963 111.998 12.3351 111.998 9.97557ZM117.804 9.97078C117.791 9.97078 117.817 9.97078 117.804 9.97078C117.804 11.4459 117.812 12.921 117.745 14.393C117.711 15.1401 118.019 15.2071 118.623 15.089C120.164 14.7841 121.241 13.9699 121.669 12.4501C122.094 10.9366 122.011 9.39287 121.786 7.87304C121.484 5.84555 120.613 5.13194 118.523 4.79029C117.828 4.67695 117.788 4.9228 117.796 5.45442" fill="url(#paint3_linear_2023_1116)"/>
<path d="M83.0605 7.86464C83.0605 5.97604 83.0507 4.08903 83.0638 2.20043C83.0719 1.01905 83.4798 0.589609 84.6462 0.319808C85.6152 0.0947083 86.5679 0.187303 87.5157 0.370895C88.5043 0.562469 88.8632 1.08291 88.8583 2.23874C88.8437 5.76211 88.7996 9.28708 88.8012 12.8105C88.8012 14.7501 90.1977 15.7336 92.1113 15.2019C93.1602 14.9114 93.6431 14.2089 93.6643 12.8871C93.7198 9.42597 93.7622 5.96486 93.816 2.50535C93.8421 0.813112 94.3299 0.35493 96.0836 0.350141C96.852 0.348544 97.6285 0.289476 98.3708 0.562469C99.1245 0.840252 99.64 1.31599 99.6188 2.15892C99.5209 6.05905 99.516 9.96398 99.2729 13.8545C99.0707 17.0889 97.361 18.8371 94.0934 19.5203C91.8927 19.9801 89.6838 19.9051 87.5174 19.292C84.6511 18.4811 83.1111 16.4807 83.0295 13.4331C82.9806 11.578 83.0197 9.71972 83.0197 7.86464H83.0589H83.0605Z" fill="url(#paint4_linear_2023_1116)"/>
<path d="M130.107 9.79791C130.107 7.43835 130.097 5.08039 130.11 2.72083C130.118 1.34789 130.784 0.567221 132.194 0.536888C135.598 0.465048 139.006 0.487398 142.412 0.474627C143.177 0.471434 143.61 0.910458 143.763 1.58416C143.91 2.22913 143.915 2.89644 143.74 3.5462C143.527 4.34123 143.027 4.7611 142.145 4.75152C140.313 4.73077 138.481 4.76589 136.649 4.73396C136.091 4.72438 135.879 4.82496 135.872 5.43959C135.846 7.67143 135.818 7.67143 138.062 7.67143C139.283 7.67143 140.504 7.66345 141.726 7.67463C142.82 7.6858 143.212 8.06895 143.27 9.15134C143.272 9.18327 143.27 9.21361 143.272 9.24553C143.368 11.6242 143.14 11.8605 140.74 11.8605C139.358 11.8605 137.975 11.8781 136.595 11.8509C136.094 11.8414 135.827 11.918 135.866 12.4991C135.926 13.4043 135.564 14.5873 136.024 15.146C136.508 15.7335 137.763 15.2801 138.68 15.3025C139.867 15.3312 141.058 15.2833 142.248 15.2961C143.496 15.3089 143.903 15.7032 143.983 16.934C144.005 17.247 144.011 17.5646 143.987 17.876C143.879 19.2633 143.489 19.6097 142.05 19.6113C139.254 19.6145 136.458 19.6161 133.662 19.6081C133.182 19.6081 132.693 19.5969 132.225 19.5091C130.701 19.225 130.133 18.5784 130.12 17.065C130.097 14.6431 130.114 12.2213 130.114 9.7995H130.109L130.107 9.79791Z" fill="url(#paint5_linear_2023_1116)"/>
<path d="M48.1089 0.742625C48.5266 0.742625 48.9475 0.702714 49.3602 0.750608C50.4728 0.876727 51.2509 1.27903 51.6702 2.48595C53.3391 7.29606 55.1368 12.0631 56.8857 16.8476C57.3196 18.0338 57.0798 18.5495 55.8742 19.046C55.1597 19.3413 54.4044 19.4962 53.6409 19.576C52.2085 19.726 51.6066 19.2838 51.1547 17.9428C50.8757 17.1174 50.9328 15.96 50.2477 15.5513C49.6212 15.1777 48.5706 15.4747 47.706 15.4907C46.1714 15.5194 45.1654 16.2309 44.688 17.6251C44.1529 19.1864 43.6765 19.5185 42.0077 19.4227C41.5003 19.394 40.9848 19.3189 40.4954 19.1864C38.9717 18.7762 38.6144 18.0466 39.1887 16.5858C41.006 11.9625 42.8935 7.36311 44.6064 2.70147C45.1546 1.20879 46.06 0.680364 47.5298 0.712293C47.7223 0.717082 47.9148 0.712293 48.1073 0.712293C48.1073 0.721872 48.1073 0.73145 48.1073 0.741029L48.1089 0.742625ZM48.0518 7.68719C47.8218 8.37846 47.6668 8.85101 47.507 9.32356C47.1002 10.5252 47.5537 11.0674 48.8675 10.9503C48.9197 10.9456 48.9654 10.8817 49.016 10.8434C48.7174 9.86475 48.4189 8.88772 48.0518 7.68719Z" fill="url(#paint6_linear_2023_1116)"/>
<path d="M102.697 10.0726C102.697 7.55496 102.761 5.03736 102.771 2.51975C102.776 1.1005 103.272 0.5625 104.699 0.276735C105.578 0.101125 106.435 0.243209 107.27 0.444362C108.218 0.672655 108.72 1.31443 108.704 2.30423C108.623 7.49589 108.544 12.686 108.463 17.8776C108.45 18.7541 108.012 19.2713 107.112 19.4374C106.087 19.6257 105.074 19.6401 104.05 19.4485C103.109 19.2745 102.683 18.7557 102.691 17.8122C102.712 15.2323 102.697 12.6508 102.697 10.071C102.673 10.071 102.722 10.071 102.697 10.071V10.0726Z" fill="url(#paint7_linear_2023_1116)"/>
</g>
<defs>
<linearGradient id="paint0_linear_2023_1116" x1="9.39441" y1="2.20979" x2="9.39441" y2="19.5883" gradientUnits="userSpaceOnUse">
<stop stop-color="#713CE2"/>
<stop offset="1" stop-color="#5200FF"/>
</linearGradient>
<linearGradient id="paint1_linear_2023_1116" x1="71.9643" y1="2.34149" x2="71.9643" y2="19.8109" gradientUnits="userSpaceOnUse">
<stop stop-color="#713CE2"/>
<stop offset="1" stop-color="#5200FF"/>
</linearGradient>
<linearGradient id="paint2_linear_2023_1116" x1="29.5874" y1="2.33777" x2="29.5874" y2="19.7251" gradientUnits="userSpaceOnUse">
<stop stop-color="#713CE2"/>
<stop offset="1" stop-color="#5200FF"/>
</linearGradient>
<linearGradient id="paint3_linear_2023_1116" x1="119.887" y1="2.34551" x2="119.887" y2="19.7991" gradientUnits="userSpaceOnUse">
<stop stop-color="#713CE2"/>
<stop offset="1" stop-color="#5200FF"/>
</linearGradient>
<linearGradient id="paint4_linear_2023_1116" x1="91.3121" y1="2.2389" x2="91.3121" y2="19.8165" gradientUnits="userSpaceOnUse">
<stop stop-color="#713CE2"/>
<stop offset="1" stop-color="#5200FF"/>
</linearGradient>
<linearGradient id="paint5_linear_2023_1116" x1="137.053" y1="2.47482" x2="137.053" y2="19.6139" gradientUnits="userSpaceOnUse">
<stop stop-color="#713CE2"/>
<stop offset="1" stop-color="#5200FF"/>
</linearGradient>
<linearGradient id="paint6_linear_2023_1116" x1="48.0081" y1="2.68541" x2="48.0081" y2="19.6039" gradientUnits="userSpaceOnUse">
<stop stop-color="#713CE2"/>
<stop offset="1" stop-color="#5200FF"/>
</linearGradient>
<linearGradient id="paint7_linear_2023_1116" x1="105.697" y1="2.2235" x2="105.697" y2="19.5856" gradientUnits="userSpaceOnUse">
<stop stop-color="#713CE2"/>
<stop offset="1" stop-color="#5200FF"/>
</linearGradient>
<clipPath id="clip0_2023_1116">
<rect width="144" height="19.6364" fill="white" transform="translate(0 0.181641)"/>
</clipPath>
</defs>
</svg>
