<svg width="144" height="20" viewBox="0 0 144 20" fill="none" xmlns="http://www.w3.org/2000/svg">
<g clip-path="url(#clip0_2017_2916)">
<path d="M13.1912 10.8192C12.6937 12.1954 12.1994 13.5731 11.6969 14.9477C11.3005 16.0349 10.4767 16.5617 9.1683 16.5776C7.95784 16.592 7.26777 16.1259 6.85504 14.986C6.30364 13.4598 5.76366 11.9288 5.05402 10.4249C5.05402 12.7589 5.05402 15.0929 5.05402 17.427C5.05402 18.9053 4.69023 19.3092 3.18938 19.4992C2.93488 19.5311 2.67713 19.555 2.42101 19.5598C0.434013 19.5981 0.053906 19.2341 0.0473806 17.3136C0.0326984 12.5322 0.0163848 7.75086 7.12065e-05 2.96949C-0.00645423 1.2533 0.434013 0.657826 1.94302 0.338535C3.70652 -0.0350345 5.05565 0.506163 5.64946 1.90146C6.78326 4.56754 7.8779 7.24958 8.99212 9.93322C9.31839 9.87415 9.29881 9.5788 9.39017 9.37286C10.4571 6.95743 11.5175 4.5388 12.5795 2.12177C13.4441 0.15175 16.5959 -0.482041 18.2011 0.991484C18.6269 1.38262 18.7982 1.85995 18.7884 2.4251C18.7085 7.58324 18.6367 12.7414 18.5568 17.8995C18.5437 18.7233 18.1343 19.2661 17.2827 19.4305C16.9368 19.4976 16.5877 19.5614 16.237 19.5758C13.8242 19.6748 13.3707 19.2469 13.3707 16.9001C13.3707 14.887 13.3707 12.8739 13.3707 10.8608L13.1912 10.8208V10.8192Z" fill="url(#paint0_linear_2017_2916)"/>
<path d="M75.5252 7.86053C76.4893 7.86053 77.4551 7.83658 78.4192 7.86531C79.9103 7.91161 80.7455 8.72261 80.7521 10.1706C80.7586 11.3935 80.801 12.618 80.5449 13.836C79.9641 16.6043 78.3719 18.4562 75.579 19.2815C73.6345 19.8563 71.6556 19.9824 69.6768 19.5641C67.3162 19.066 65.5233 17.7697 64.4711 15.6113C63.1987 13.0027 62.8528 10.2456 63.4629 7.43587C64.4499 2.88758 67.8627 0.277377 72.6295 0.30292C74.6133 0.314095 76.5203 0.694051 78.2626 1.6615C79.801 2.5156 80.1517 3.5517 79.3328 4.72829C78.3882 6.08687 76.3066 6.7015 75.3343 5.75161C74.8025 5.23117 74.1059 4.96456 73.3588 4.86718C70.9655 4.55427 69.5756 5.52811 69.1107 7.89405C68.773 9.61024 68.7371 11.3392 69.326 13.0155C70.0536 15.0845 72.3212 15.8188 74.1989 14.6343C74.4991 14.4443 74.7617 14.208 74.9281 13.8951C75.1679 13.4417 75.4159 12.8989 75.1826 12.4631C74.982 12.0879 74.4175 12.3577 74.0146 12.3402C73.7274 12.3274 73.4371 12.3593 73.1467 12.3737C72.2723 12.42 71.4337 12.3434 71.0096 11.4494C70.5626 10.509 70.5626 9.55276 71.1385 8.65077C71.4533 8.15587 71.946 7.95631 72.5366 7.95951C73.592 7.88926 74.5301 7.86212 75.5268 7.86212C75.5268 7.83019 75.5268 7.89405 75.5268 7.86212L75.5252 7.86053Z" fill="url(#paint1_linear_2017_2916)"/>
<path d="M38.2638 9.88205C38.2719 11.1337 38.1463 12.3134 37.8869 13.4884C36.8526 18.1788 33.3028 20.0339 28.8622 19.6843C24.5506 19.3442 21.8425 16.6909 21.1002 12.3438C20.7332 10.2029 20.8735 8.07327 21.4869 5.99309C22.4102 2.86405 24.4869 0.90999 27.828 0.453404C32.6225 -0.201141 36.2898 1.32187 37.7858 6.02502C38.1887 7.2926 38.3209 8.60808 38.2638 9.88205ZM26.8916 9.98901C26.8834 11.255 26.9699 12.5114 27.5115 13.6816C27.9226 14.5724 28.58 15.1519 29.6665 15.1168C30.7465 15.0817 31.4072 14.4894 31.7138 13.5555C32.4887 11.1927 32.5181 8.79487 31.784 6.42094C31.4365 5.29704 30.7285 4.83247 29.6828 4.81491C28.5784 4.79575 27.8671 5.27629 27.425 6.37145C26.9552 7.53367 26.9013 8.75974 26.8916 9.98901Z" fill="url(#paint2_linear_2017_2916)"/>
<path d="M111.998 9.97606C111.998 7.52072 111.993 5.06697 111.999 2.61163C112.003 1.20196 112.59 0.473975 114.039 0.387767C116.673 0.231315 119.313 0.256858 121.886 0.946525C124.796 1.72719 126.649 3.54715 127.331 6.45269C127.802 8.46582 127.949 10.4981 127.537 12.532C126.78 16.2725 124.21 18.2696 120.626 19.1956C118.693 19.6953 116.704 19.8613 114.703 19.7799C112.678 19.6969 111.999 19.0088 111.998 17.0563C111.996 14.6968 111.998 12.3356 111.998 9.97606ZM117.804 9.97127C117.791 9.97127 117.817 9.97127 117.804 9.97127C117.804 11.4464 117.812 12.9215 117.745 14.3934C117.711 15.1406 118.019 15.2076 118.623 15.0895C120.164 14.7846 121.241 13.9704 121.669 12.4506C122.094 10.9371 122.011 9.39336 121.786 7.87353C121.484 5.84604 120.613 5.13242 118.523 4.79078C117.828 4.67743 117.788 4.92329 117.796 5.45491" fill="url(#paint3_linear_2017_2916)"/>
<path d="M83.0605 7.86538C83.0605 5.97677 83.0507 4.08976 83.0638 2.20116C83.0719 1.01979 83.4798 0.590341 84.6462 0.320541C85.6152 0.0954408 86.5679 0.188035 87.5157 0.371627C88.5043 0.563201 88.8632 1.08364 88.8583 2.23948C88.8437 5.76285 88.7996 9.28781 88.8012 12.8112C88.8012 14.7509 90.1977 15.7343 92.1113 15.2027C93.1602 14.9121 93.6431 14.2097 93.6643 12.8878C93.7198 9.4267 93.7622 5.9656 93.816 2.50608C93.8421 0.813844 94.3299 0.355662 96.0836 0.350873C96.852 0.349277 97.6285 0.290208 98.3708 0.563201C99.1245 0.840984 99.64 1.31673 99.6188 2.15965C99.5209 6.05979 99.516 9.96471 99.2729 13.8553C99.0707 17.0897 97.361 18.8378 94.0934 19.5211C91.8927 19.9809 89.6838 19.9058 87.5174 19.2928C84.6511 18.4818 83.1111 16.4814 83.0295 13.4338C82.9806 11.5787 83.0197 9.72045 83.0197 7.86538H83.0589H83.0605Z" fill="url(#paint4_linear_2017_2916)"/>
<path d="M130.107 9.79742C130.107 7.43786 130.097 5.0799 130.11 2.72035C130.118 1.3474 130.784 0.566733 132.194 0.5364C135.598 0.46456 139.006 0.48691 142.412 0.474138C143.177 0.470945 143.61 0.90997 143.763 1.58367C143.91 2.22864 143.915 2.89596 143.74 3.54571C143.527 4.34075 143.027 4.76061 142.145 4.75103C140.313 4.73028 138.481 4.7654 136.649 4.73347C136.091 4.72389 135.879 4.82447 135.872 5.4391C135.846 7.67094 135.818 7.67094 138.062 7.67094C139.283 7.67094 140.504 7.66296 141.726 7.67414C142.82 7.68531 143.212 8.06846 143.27 9.15086C143.272 9.18279 143.27 9.21312 143.272 9.24505C143.368 11.6238 143.14 11.86 140.74 11.86C139.358 11.86 137.975 11.8776 136.595 11.8505C136.094 11.8409 135.827 11.9175 135.866 12.4986C135.926 13.4038 135.564 14.5868 136.024 15.1455C136.508 15.733 137.763 15.2796 138.68 15.302C139.867 15.3307 141.058 15.2828 142.248 15.2956C143.496 15.3084 143.903 15.7027 143.983 16.9336C144.005 17.2465 144.011 17.5642 143.987 17.8755C143.879 19.2628 143.489 19.6092 142.05 19.6108C139.254 19.614 136.458 19.6156 133.662 19.6076C133.182 19.6076 132.693 19.5964 132.225 19.5086C130.701 19.2245 130.133 18.5779 130.12 17.0645C130.097 14.6427 130.114 12.2208 130.114 9.79902H130.109L130.107 9.79742Z" fill="url(#paint5_linear_2017_2916)"/>
<path d="M48.1089 0.742381C48.5266 0.742381 48.9475 0.70247 49.3602 0.750364C50.4728 0.876483 51.2509 1.27879 51.6702 2.48571C53.3391 7.29582 55.1368 12.0628 56.8857 16.8474C57.3196 18.0336 57.0798 18.5492 55.8742 19.0457C55.1597 19.3411 54.4044 19.4959 53.6409 19.5757C52.2085 19.7258 51.6066 19.2836 51.1547 17.9426C50.8757 17.1172 50.9328 15.9598 50.2477 15.5511C49.6212 15.1775 48.5706 15.4744 47.706 15.4904C46.1714 15.5191 45.1654 16.2306 44.688 17.6249C44.1529 19.1862 43.6765 19.5183 42.0077 19.4225C41.5003 19.3937 40.9848 19.3187 40.4954 19.1862C38.9717 18.7759 38.6144 18.0463 39.1887 16.5856C41.006 11.9622 42.8935 7.36287 44.6064 2.70123C45.1546 1.20855 46.06 0.68012 47.5298 0.712049C47.7223 0.716838 47.9148 0.712049 48.1073 0.712049C48.1073 0.721627 48.1073 0.731206 48.1073 0.740785L48.1089 0.742381ZM48.0518 7.68695C47.8218 8.37821 47.6668 8.85076 47.507 9.32331C47.1002 10.5249 47.5537 11.0672 48.8675 10.9501C48.9197 10.9453 48.9654 10.8815 49.016 10.8431C48.7174 9.86451 48.4189 8.88748 48.0518 7.68695Z" fill="url(#paint6_linear_2017_2916)"/>
<path d="M102.697 10.0718C102.697 7.55423 102.761 5.03662 102.771 2.51902C102.776 1.09977 103.272 0.561767 104.699 0.276002C105.578 0.100393 106.435 0.242477 107.27 0.44363C108.218 0.671923 108.72 1.3137 108.704 2.3035C108.623 7.49516 108.544 12.6852 108.463 17.8769C108.45 18.7533 108.012 19.2706 107.112 19.4366C106.087 19.625 105.074 19.6394 104.05 19.4478C103.109 19.2738 102.683 18.7549 102.691 17.8114C102.712 15.2316 102.697 12.6501 102.697 10.0702C102.673 10.0702 102.722 10.0702 102.697 10.0702V10.0718Z" fill="url(#paint7_linear_2017_2916)"/>
</g>
<defs>
<linearGradient id="paint0_linear_2017_2916" x1="9.39441" y1="2.21028" x2="9.39441" y2="19.5888" gradientUnits="userSpaceOnUse">
<stop stop-color="#713CE2"/>
<stop offset="1" stop-color="#5200FF"/>
</linearGradient>
<linearGradient id="paint1_linear_2017_2916" x1="71.9643" y1="2.34149" x2="71.9643" y2="19.8109" gradientUnits="userSpaceOnUse">
<stop stop-color="#713CE2"/>
<stop offset="1" stop-color="#5200FF"/>
</linearGradient>
<linearGradient id="paint2_linear_2017_2916" x1="29.5879" y1="2.33826" x2="29.5879" y2="19.7255" gradientUnits="userSpaceOnUse">
<stop stop-color="#713CE2"/>
<stop offset="1" stop-color="#5200FF"/>
</linearGradient>
<linearGradient id="paint3_linear_2017_2916" x1="119.887" y1="2.346" x2="119.887" y2="19.7996" gradientUnits="userSpaceOnUse">
<stop stop-color="#713CE2"/>
<stop offset="1" stop-color="#5200FF"/>
</linearGradient>
<linearGradient id="paint4_linear_2017_2916" x1="91.3121" y1="2.23963" x2="91.3121" y2="19.8173" gradientUnits="userSpaceOnUse">
<stop stop-color="#713CE2"/>
<stop offset="1" stop-color="#5200FF"/>
</linearGradient>
<linearGradient id="paint5_linear_2017_2916" x1="137.053" y1="2.47434" x2="137.053" y2="19.6134" gradientUnits="userSpaceOnUse">
<stop stop-color="#713CE2"/>
<stop offset="1" stop-color="#5200FF"/>
</linearGradient>
<linearGradient id="paint6_linear_2017_2916" x1="48.0081" y1="2.68516" x2="48.0081" y2="19.6037" gradientUnits="userSpaceOnUse">
<stop stop-color="#713CE2"/>
<stop offset="1" stop-color="#5200FF"/>
</linearGradient>
<linearGradient id="paint7_linear_2017_2916" x1="105.697" y1="2.22277" x2="105.697" y2="19.5849" gradientUnits="userSpaceOnUse">
<stop stop-color="#713CE2"/>
<stop offset="1" stop-color="#5200FF"/>
</linearGradient>
<clipPath id="clip0_2017_2916">
<rect width="144" height="19.6364" fill="white" transform="translate(0 0.181885)"/>
</clipPath>
</defs>
</svg>
