<svg width="32" height="32" viewBox="0 0 32 32" fill="none" xmlns="http://www.w3.org/2000/svg">
<path d="M29.478 3.09862C29.478 2.37642 28.8447 1.81784 28.1282 1.90801L11.493 4.0014C10.893 4.07692 10.4429 4.5872 10.4429 5.19201V24.4901H14.5874V10.0207C14.5874 9.51666 14.9625 9.09142 15.4625 9.02849L24.2086 7.92786C24.8058 7.85271 25.3335 8.3182 25.3335 8.92003V20.8026H29.478V3.09862Z" fill="#634FC9"/>
<path d="M29.478 3.09862C29.478 2.37642 28.8447 1.81784 28.1282 1.90801L11.493 4.0014C10.893 4.07692 10.4429 4.5872 10.4429 5.19201V24.4901H14.5874V10.0207C14.5874 9.51666 14.9625 9.09142 15.4625 9.02849L24.2086 7.92786C24.8058 7.85271 25.3335 8.3182 25.3335 8.92003V20.8026H29.478V3.09862Z" fill="url(#paint0_linear_2023_937)"/>
<path d="M29.478 3.09862C29.478 2.37642 28.8447 1.81784 28.1282 1.90801L11.493 4.0014C10.893 4.07692 10.4429 4.5872 10.4429 5.19201V24.4901H14.5874V10.0207C14.5874 9.51666 14.9625 9.09142 15.4625 9.02849L24.2086 7.92786C24.8058 7.85271 25.3335 8.3182 25.3335 8.92003V20.8026H29.478V3.09862Z" fill="url(#paint1_radial_2023_937)"/>
<path d="M29.478 3.09862C29.478 2.37642 28.8447 1.81784 28.1282 1.90801L11.493 4.0014C10.893 4.07692 10.4429 4.5872 10.4429 5.19201V24.4901H14.5874V10.0207C14.5874 9.51666 14.9625 9.09142 15.4625 9.02849L24.2086 7.92786C24.8058 7.85271 25.3335 8.3182 25.3335 8.92003V20.8026H29.478V3.09862Z" fill="url(#paint2_radial_2023_937)"/>
<path d="M29.478 3.09862C29.478 2.37642 28.8447 1.81784 28.1282 1.90801L11.493 4.0014C10.893 4.07692 10.4429 4.5872 10.4429 5.19201V24.4901H14.5874V10.0207C14.5874 9.51666 14.9625 9.09142 15.4625 9.02849L24.2086 7.92786C24.8058 7.85271 25.3335 8.3182 25.3335 8.92003V20.8026H29.478V3.09862Z" fill="url(#paint3_radial_2023_937)"/>
<path d="M29.478 3.09862C29.478 2.37642 28.8447 1.81784 28.1282 1.90801L11.493 4.0014C10.893 4.07692 10.4429 4.5872 10.4429 5.19201V24.4901H14.5874V10.0207C14.5874 9.51666 14.9625 9.09142 15.4625 9.02849L24.2086 7.92786C24.8058 7.85271 25.3335 8.3182 25.3335 8.92003V20.8026H29.478V3.09862Z" fill="url(#paint4_radial_2023_937)" fill-opacity="0.4"/>
<path d="M29.478 3.09862C29.478 2.37642 28.8447 1.81784 28.1282 1.90801L11.493 4.0014C10.893 4.07692 10.4429 4.5872 10.4429 5.19201V24.4901H14.5874V10.0207C14.5874 9.51666 14.9625 9.09142 15.4625 9.02849L24.2086 7.92786C24.8058 7.85271 25.3335 8.3182 25.3335 8.92003V20.8026H29.478V3.09862Z" fill="url(#paint5_radial_2023_937)"/>
<path d="M29.478 3.09862C29.478 2.37642 28.8447 1.81784 28.1282 1.90801L11.493 4.0014C10.893 4.07692 10.4429 4.5872 10.4429 5.19201V24.4901H14.5874V10.0207C14.5874 9.51666 14.9625 9.09142 15.4625 9.02849L24.2086 7.92786C24.8058 7.85271 25.3335 8.3182 25.3335 8.92003V20.8026H29.478V3.09862Z" fill="url(#paint6_radial_2023_937)" fill-opacity="0.8"/>
<path d="M29.478 3.09862C29.478 2.37642 28.8447 1.81784 28.1282 1.90801L11.493 4.0014C10.893 4.07692 10.4429 4.5872 10.4429 5.19201V24.4901H14.5874V10.0207C14.5874 9.51666 14.9625 9.09142 15.4625 9.02849L24.2086 7.92786C24.8058 7.85271 25.3335 8.3182 25.3335 8.92003V20.8026H29.478V3.09862Z" fill="url(#paint7_linear_2023_937)"/>
<path d="M29.478 3.09862C29.478 2.37642 28.8447 1.81784 28.1282 1.90801L11.493 4.0014C10.893 4.07692 10.4429 4.5872 10.4429 5.19201V24.4901H14.5874V10.0207C14.5874 9.51666 14.9625 9.09142 15.4625 9.02849L24.2086 7.92786C24.8058 7.85271 25.3335 8.3182 25.3335 8.92003V20.8026H29.478V3.09862Z" fill="url(#paint8_linear_2023_937)"/>
<path d="M29.478 3.09862C29.478 2.37642 28.8447 1.81784 28.1282 1.90801L11.493 4.0014C10.893 4.07692 10.4429 4.5872 10.4429 5.19201V24.4901H14.5874V10.0207C14.5874 9.51666 14.9625 9.09142 15.4625 9.02849L24.2086 7.92786C24.8058 7.85271 25.3335 8.3182 25.3335 8.92003V20.8026H29.478V3.09862Z" fill="url(#paint9_radial_2023_937)"/>
<circle cx="8.646" cy="24.1602" r="5.94141" fill="url(#paint10_linear_2023_937)"/>
<circle cx="8.646" cy="24.1602" r="5.94141" fill="url(#paint11_radial_2023_937)"/>
<circle cx="8.646" cy="24.1602" r="5.94141" fill="url(#paint12_radial_2023_937)"/>
<circle cx="8.646" cy="24.1602" r="5.94141" fill="url(#paint13_radial_2023_937)"/>
<circle cx="23.5366" cy="20.7695" r="5.94141" fill="url(#paint14_linear_2023_937)"/>
<circle cx="23.5366" cy="20.7695" r="5.94141" fill="url(#paint15_radial_2023_937)"/>
<circle cx="23.5366" cy="20.7695" r="5.94141" fill="url(#paint16_radial_2023_937)"/>
<circle cx="23.5366" cy="20.7695" r="5.94141" fill="url(#paint17_radial_2023_937)"/>
<defs>
<linearGradient id="paint0_linear_2023_937" x1="10.3107" y1="17.3195" x2="11.5366" y2="17.3195" gradientUnits="userSpaceOnUse">
<stop stop-color="#544B83"/>
<stop offset="1" stop-color="#544B83" stop-opacity="0"/>
</linearGradient>
<radialGradient id="paint1_radial_2023_937" cx="0" cy="0" r="1" gradientUnits="userSpaceOnUse" gradientTransform="translate(27.3179 17.2646) rotate(-51.1467) scale(1.44461 4.28044)">
<stop offset="0.582086" stop-color="#796DB7"/>
<stop offset="1" stop-color="#796DB7" stop-opacity="0"/>
</radialGradient>
<radialGradient id="paint2_radial_2023_937" cx="0" cy="0" r="1" gradientUnits="userSpaceOnUse" gradientTransform="translate(12.4741 20.3896) rotate(-47.1211) scale(1.49258 4.0639)">
<stop offset="0.381918" stop-color="#796DB7"/>
<stop offset="1" stop-color="#796DB7" stop-opacity="0"/>
</radialGradient>
<radialGradient id="paint3_radial_2023_937" cx="0" cy="0" r="1" gradientUnits="userSpaceOnUse" gradientTransform="translate(14.6057 17.1288) rotate(-0.279522) scale(2.22578 14.2144)">
<stop offset="0.116071" stop-color="#796DB7"/>
<stop offset="0.553571" stop-color="#796DB7" stop-opacity="0"/>
</radialGradient>
<radialGradient id="paint4_radial_2023_937" cx="0" cy="0" r="1" gradientUnits="userSpaceOnUse" gradientTransform="translate(19.6501 8.42599) rotate(84.6373) scale(3.32105 15.6933)">
<stop offset="0.116071" stop-color="#544B83"/>
<stop offset="0.35185" stop-color="#544B83" stop-opacity="0"/>
</radialGradient>
<radialGradient id="paint5_radial_2023_937" cx="0" cy="0" r="1" gradientUnits="userSpaceOnUse" gradientTransform="translate(14.9089 12.7963) rotate(-2.8864) scale(2.42866 5.06616)">
<stop offset="0.153652" stop-color="#796DB7"/>
<stop offset="0.557338" stop-color="#796DB7" stop-opacity="0"/>
</radialGradient>
<radialGradient id="paint6_radial_2023_937" cx="0" cy="0" r="1" gradientUnits="userSpaceOnUse" gradientTransform="translate(14.8484 10.0918) rotate(31.8095) scale(1.79653 2.75469)">
<stop offset="0.239763" stop-color="#796DB7"/>
<stop offset="0.618253" stop-color="#796DB7" stop-opacity="0"/>
</radialGradient>
<linearGradient id="paint7_linear_2023_937" x1="31.3912" y1="14.6003" x2="27.7149" y2="14.6173" gradientUnits="userSpaceOnUse">
<stop offset="0.480286" stop-color="#796DB7"/>
<stop offset="0.90049" stop-color="#796DB7" stop-opacity="0"/>
</linearGradient>
<linearGradient id="paint8_linear_2023_937" x1="17.6469" y1="0.938529" x2="18.5474" y2="6.76182" gradientUnits="userSpaceOnUse">
<stop offset="0.304546" stop-color="#544B83"/>
<stop offset="0.678742" stop-color="#544B83" stop-opacity="0"/>
</linearGradient>
<radialGradient id="paint9_radial_2023_937" cx="0" cy="0" r="1" gradientUnits="userSpaceOnUse" gradientTransform="translate(29.2047 2.21986) rotate(137.021) scale(2.3405 0.716969)">
<stop stop-color="#796DB7"/>
<stop offset="1" stop-color="#796DB7" stop-opacity="0"/>
</radialGradient>
<linearGradient id="paint10_linear_2023_937" x1="8.646" y1="18.2188" x2="8.646" y2="29.1682" gradientUnits="userSpaceOnUse">
<stop stop-color="#7961F4"/>
<stop offset="1" stop-color="#503DAC"/>
</linearGradient>
<radialGradient id="paint11_radial_2023_937" cx="0" cy="0" r="1" gradientUnits="userSpaceOnUse" gradientTransform="translate(11.5445 22.8705) rotate(131.406) scale(5.169 4.49706)">
<stop stop-color="#897CCC"/>
<stop offset="1" stop-color="#796DB7" stop-opacity="0"/>
</radialGradient>
<radialGradient id="paint12_radial_2023_937" cx="0" cy="0" r="1" gradientUnits="userSpaceOnUse" gradientTransform="translate(7.29747 24.1602) scale(8.19062 10.8866)">
<stop offset="0.796178" stop-color="#796DB7" stop-opacity="0"/>
<stop offset="0.955414" stop-color="#796DB7"/>
</radialGradient>
<radialGradient id="paint13_radial_2023_937" cx="0" cy="0" r="1" gradientUnits="userSpaceOnUse" gradientTransform="translate(8.646 22.9385) rotate(90) scale(7.40421 7.50615)">
<stop offset="0.71875" stop-color="#544B83" stop-opacity="0"/>
<stop offset="1" stop-color="#544B83"/>
</radialGradient>
<linearGradient id="paint14_linear_2023_937" x1="23.5366" y1="14.8281" x2="23.5366" y2="25.7776" gradientUnits="userSpaceOnUse">
<stop stop-color="#7961F4"/>
<stop offset="1" stop-color="#503DAC"/>
</linearGradient>
<radialGradient id="paint15_radial_2023_937" cx="0" cy="0" r="1" gradientUnits="userSpaceOnUse" gradientTransform="translate(26.4351 19.4799) rotate(131.406) scale(5.169 4.49706)">
<stop stop-color="#897CCC"/>
<stop offset="1" stop-color="#796DB7" stop-opacity="0"/>
</radialGradient>
<radialGradient id="paint16_radial_2023_937" cx="0" cy="0" r="1" gradientUnits="userSpaceOnUse" gradientTransform="translate(22.1881 20.7695) scale(8.19062 10.8866)">
<stop offset="0.796178" stop-color="#796DB7" stop-opacity="0"/>
<stop offset="0.955414" stop-color="#796DB7"/>
</radialGradient>
<radialGradient id="paint17_radial_2023_937" cx="0" cy="0" r="1" gradientUnits="userSpaceOnUse" gradientTransform="translate(23.5366 19.5479) rotate(90) scale(7.40421 7.50615)">
<stop offset="0.71875" stop-color="#544B83" stop-opacity="0"/>
<stop offset="1" stop-color="#544B83"/>
</radialGradient>
</defs>
</svg>
