<svg width="32" height="32" viewBox="0 0 32 32" fill="none" xmlns="http://www.w3.org/2000/svg">
<path d="M4.14551 16.9688C4.14551 16.8307 4.25744 16.7188 4.39551 16.7188H25.1745C25.3126 16.7188 25.4245 16.8307 25.4245 16.9688V27.9726C25.4245 29.0219 24.5738 29.8726 23.5245 29.8726H6.04551C4.99617 29.8726 4.14551 29.0219 4.14551 27.9726V16.9688Z" fill="url(#paint0_linear_2023_987)"/>
<path d="M4.14551 16.9688C4.14551 16.8307 4.25744 16.7188 4.39551 16.7188H25.1745C25.3126 16.7188 25.4245 16.8307 25.4245 16.9688V27.9726C25.4245 29.0219 24.5738 29.8726 23.5245 29.8726H6.04551C4.99617 29.8726 4.14551 29.0219 4.14551 27.9726V16.9688Z" fill="url(#paint1_linear_2023_987)"/>
<path d="M4.14551 16.9688C4.14551 16.8307 4.25744 16.7188 4.39551 16.7188H25.1745C25.3126 16.7188 25.4245 16.8307 25.4245 16.9688V27.9726C25.4245 29.0219 24.5738 29.8726 23.5245 29.8726H6.04551C4.99617 29.8726 4.14551 29.0219 4.14551 27.9726V16.9688Z" fill="url(#paint2_linear_2023_987)"/>
<path d="M6.64551 16.9688C6.64551 16.8307 6.75744 16.7188 6.89551 16.7188H27.6745C27.8126 16.7188 27.9245 16.8307 27.9245 16.9688V27.9726C27.9245 29.0219 27.0738 29.8726 26.0245 29.8726H8.54551C7.49617 29.8726 6.64551 29.0219 6.64551 27.9726V16.9688Z" fill="url(#paint3_linear_2023_987)"/>
<path d="M6.64551 16.9688C6.64551 16.8307 6.75744 16.7188 6.89551 16.7188H27.6745C27.8126 16.7188 27.9245 16.8307 27.9245 16.9688V27.9726C27.9245 29.0219 27.0738 29.8726 26.0245 29.8726H8.54551C7.49617 29.8726 6.64551 29.0219 6.64551 27.9726V16.9688Z" fill="url(#paint4_linear_2023_987)"/>
<path d="M6.64551 16.9688C6.64551 16.8307 6.75744 16.7188 6.89551 16.7188H27.6745C27.8126 16.7188 27.9245 16.8307 27.9245 16.9688V27.9726C27.9245 29.0219 27.0738 29.8726 26.0245 29.8726H8.54551C7.49617 29.8726 6.64551 29.0219 6.64551 27.9726V16.9688Z" fill="url(#paint5_radial_2023_987)"/>
<path d="M6.64551 16.9688C6.64551 16.8307 6.75744 16.7188 6.89551 16.7188H27.6745C27.8126 16.7188 27.9245 16.8307 27.9245 16.9688V27.9726C27.9245 29.0219 27.0738 29.8726 26.0245 29.8726H8.54551C7.49617 29.8726 6.64551 29.0219 6.64551 27.9726V16.9688Z" fill="url(#paint6_linear_2023_987)"/>
<path d="M6.64551 16.9688C6.64551 16.8307 6.75744 16.7188 6.89551 16.7188H27.6745C27.8126 16.7188 27.9245 16.8307 27.9245 16.9688V27.9726C27.9245 29.0219 27.0738 29.8726 26.0245 29.8726H8.54551C7.49617 29.8726 6.64551 29.0219 6.64551 27.9726V16.9688Z" fill="url(#paint7_radial_2023_987)"/>
<path d="M6.64551 16.9688C6.64551 16.8307 6.75744 16.7188 6.89551 16.7188H27.6745C27.8126 16.7188 27.9245 16.8307 27.9245 16.9688V27.9726C27.9245 29.0219 27.0738 29.8726 26.0245 29.8726H8.54551C7.49617 29.8726 6.64551 29.0219 6.64551 27.9726V16.9688Z" fill="url(#paint8_linear_2023_987)"/>
<path d="M6.64551 16.9688C6.64551 16.8307 6.75744 16.7188 6.89551 16.7188H27.6745C27.8126 16.7188 27.9245 16.8307 27.9245 16.9688V27.9726C27.9245 29.0219 27.0738 29.8726 26.0245 29.8726H8.54551C7.49617 29.8726 6.64551 29.0219 6.64551 27.9726V16.9688Z" fill="url(#paint9_radial_2023_987)"/>
<path d="M6.64551 16.9688C6.64551 16.8307 6.75744 16.7188 6.89551 16.7188H27.6745C27.8126 16.7188 27.9245 16.8307 27.9245 16.9688V27.9726C27.9245 29.0219 27.0738 29.8726 26.0245 29.8726H8.54551C7.49617 29.8726 6.64551 29.0219 6.64551 27.9726V16.9688Z" fill="url(#paint10_radial_2023_987)"/>
<path d="M6.64551 16.9688C6.64551 16.8307 6.75744 16.7188 6.89551 16.7188H27.6745C27.8126 16.7188 27.9245 16.8307 27.9245 16.9688V27.9726C27.9245 29.0219 27.0738 29.8726 26.0245 29.8726H8.54551C7.49617 29.8726 6.64551 29.0219 6.64551 27.9726V16.9688Z" fill="url(#paint11_linear_2023_987)"/>
<path d="M4.14551 13.1328C4.14551 12.9947 4.25744 12.8828 4.39551 12.8828H25.1745C25.3126 12.8828 25.4245 12.9947 25.4245 13.1328V16.4693C25.4245 16.6074 25.3126 16.7193 25.1745 16.7193H4.39551C4.25744 16.7193 4.14551 16.6074 4.14551 16.4693V13.1328Z" fill="url(#paint12_linear_2023_987)"/>
<path d="M4.14551 13.1328C4.14551 12.9947 4.25744 12.8828 4.39551 12.8828H25.1745C25.3126 12.8828 25.4245 12.9947 25.4245 13.1328V16.4693C25.4245 16.6074 25.3126 16.7193 25.1745 16.7193H4.39551C4.25744 16.7193 4.14551 16.6074 4.14551 16.4693V13.1328Z" fill="url(#paint13_linear_2023_987)"/>
<path d="M6.64551 13.1328C6.64551 12.9947 6.75744 12.8828 6.89551 12.8828H27.6745C27.8126 12.8828 27.9245 12.9947 27.9245 13.1328V16.4693C27.9245 16.6074 27.8126 16.7193 27.6745 16.7193H6.89551C6.75744 16.7193 6.64551 16.6074 6.64551 16.4693V13.1328Z" fill="url(#paint14_linear_2023_987)"/>
<path d="M6.64551 13.1328C6.64551 12.9947 6.75744 12.8828 6.89551 12.8828H27.6745C27.8126 12.8828 27.9245 12.9947 27.9245 13.1328V16.4693C27.9245 16.6074 27.8126 16.7193 27.6745 16.7193H6.89551C6.75744 16.7193 6.64551 16.6074 6.64551 16.4693V13.1328Z" fill="url(#paint15_linear_2023_987)"/>
<path d="M6.64551 13.1328C6.64551 12.9947 6.75744 12.8828 6.89551 12.8828H27.6745C27.8126 12.8828 27.9245 12.9947 27.9245 13.1328V16.4693C27.9245 16.6074 27.8126 16.7193 27.6745 16.7193H6.89551C6.75744 16.7193 6.64551 16.6074 6.64551 16.4693V13.1328Z" fill="url(#paint16_linear_2023_987)"/>
<path d="M6.64551 13.1328C6.64551 12.9947 6.75744 12.8828 6.89551 12.8828H27.6745C27.8126 12.8828 27.9245 12.9947 27.9245 13.1328V16.4693C27.9245 16.6074 27.8126 16.7193 27.6745 16.7193H6.89551C6.75744 16.7193 6.64551 16.6074 6.64551 16.4693V13.1328Z" fill="url(#paint17_linear_2023_987)"/>
<path d="M6.64551 13.1328C6.64551 12.9947 6.75744 12.8828 6.89551 12.8828H27.6745C27.8126 12.8828 27.9245 12.9947 27.9245 13.1328V16.4693C27.9245 16.6074 27.8126 16.7193 27.6745 16.7193H6.89551C6.75744 16.7193 6.64551 16.6074 6.64551 16.4693V13.1328Z" fill="url(#paint18_linear_2023_987)"/>
<path d="M3.668 9.82791C3.39081 8.75869 4.03289 7.66721 5.10211 7.39002L22.4205 2.90042C23.4897 2.62323 24.5812 3.26531 24.8584 4.33454L25.3356 6.17532C25.3702 6.30897 25.29 6.44541 25.1563 6.48006L4.44994 11.848C4.31629 11.8826 4.17985 11.8024 4.1452 11.6687L3.668 9.82791Z" fill="url(#paint19_linear_2023_987)"/>
<path d="M3.668 9.82791C3.39081 8.75869 4.03289 7.66721 5.10211 7.39002L22.4205 2.90042C23.4897 2.62323 24.5812 3.26531 24.8584 4.33454L25.3356 6.17532C25.3702 6.30897 25.29 6.44541 25.1563 6.48006L4.44994 11.848C4.31629 11.8826 4.17985 11.8024 4.1452 11.6687L3.668 9.82791Z" fill="url(#paint20_linear_2023_987)"/>
<path d="M5.76175 9.28495C5.48456 8.21572 6.12664 7.12424 7.19586 6.84705L24.5142 2.35745C25.5835 2.08027 26.675 2.72234 26.9521 3.79157L27.4293 5.63235C27.464 5.766 27.3837 5.90244 27.2501 5.93709L6.54369 11.305C6.41004 11.3396 6.2736 11.2594 6.23895 11.1257L5.76175 9.28495Z" fill="url(#paint21_linear_2023_987)"/>
<path d="M5.76175 9.28495C5.48456 8.21572 6.12664 7.12424 7.19586 6.84705L24.5142 2.35745C25.5835 2.08027 26.675 2.72234 26.9521 3.79157L27.4293 5.63235C27.464 5.766 27.3837 5.90244 27.2501 5.93709L6.54369 11.305C6.41004 11.3396 6.2736 11.2594 6.23895 11.1257L5.76175 9.28495Z" fill="url(#paint22_linear_2023_987)"/>
<path d="M5.76175 9.28495C5.48456 8.21572 6.12664 7.12424 7.19586 6.84705L24.5142 2.35745C25.5835 2.08027 26.675 2.72234 26.9521 3.79157L27.4293 5.63235C27.464 5.766 27.3837 5.90244 27.2501 5.93709L6.54369 11.305C6.41004 11.3396 6.2736 11.2594 6.23895 11.1257L5.76175 9.28495Z" fill="url(#paint23_radial_2023_987)"/>
<path d="M5.76175 9.28495C5.48456 8.21572 6.12664 7.12424 7.19586 6.84705L24.5142 2.35745C25.5835 2.08027 26.675 2.72234 26.9521 3.79157L27.4293 5.63235C27.464 5.766 27.3837 5.90244 27.2501 5.93709L6.54369 11.305C6.41004 11.3396 6.2736 11.2594 6.23895 11.1257L5.76175 9.28495Z" fill="url(#paint24_linear_2023_987)"/>
<path d="M5.76175 9.28495C5.48456 8.21572 6.12664 7.12424 7.19586 6.84705L24.5142 2.35745C25.5835 2.08027 26.675 2.72234 26.9521 3.79157L27.4293 5.63235C27.464 5.766 27.3837 5.90244 27.2501 5.93709L6.54369 11.305C6.41004 11.3396 6.2736 11.2594 6.23895 11.1257L5.76175 9.28495Z" fill="url(#paint25_linear_2023_987)"/>
<path d="M5.76175 9.28495C5.48456 8.21572 6.12664 7.12424 7.19586 6.84705L24.5142 2.35745C25.5835 2.08027 26.675 2.72234 26.9521 3.79157L27.4293 5.63235C27.464 5.766 27.3837 5.90244 27.2501 5.93709L6.54369 11.305C6.41004 11.3396 6.2736 11.2594 6.23895 11.1257L5.76175 9.28495Z" fill="url(#paint26_radial_2023_987)"/>
<path d="M5.76175 9.28495C5.48456 8.21572 6.12664 7.12424 7.19586 6.84705L24.5142 2.35745C25.5835 2.08027 26.675 2.72234 26.9521 3.79157L27.4293 5.63235C27.464 5.766 27.3837 5.90244 27.2501 5.93709L6.54369 11.305C6.41004 11.3396 6.2736 11.2594 6.23895 11.1257L5.76175 9.28495Z" fill="url(#paint27_radial_2023_987)"/>
<path d="M5.76175 9.28495C5.48456 8.21572 6.12664 7.12424 7.19586 6.84705L24.5142 2.35745C25.5835 2.08027 26.675 2.72234 26.9521 3.79157L27.4293 5.63235C27.464 5.766 27.3837 5.90244 27.2501 5.93709L6.54369 11.305C6.41004 11.3396 6.2736 11.2594 6.23895 11.1257L5.76175 9.28495Z" fill="url(#paint28_linear_2023_987)"/>
<path d="M5.76175 9.28495C5.48456 8.21572 6.12664 7.12424 7.19586 6.84705L24.5142 2.35745C25.5835 2.08027 26.675 2.72234 26.9521 3.79157L27.4293 5.63235C27.464 5.766 27.3837 5.90244 27.2501 5.93709L6.54369 11.305C6.41004 11.3396 6.2736 11.2594 6.23895 11.1257L5.76175 9.28495Z" fill="url(#paint29_linear_2023_987)"/>
<path d="M15.7507 8.91815L11.0461 10.1378C10.961 9.98608 10.8416 9.89359 10.769 9.83737L10.7565 9.82767C9.68359 8.99173 7.47839 7.27768 7.24089 7.10892C7.09021 7.00186 6.97975 6.95834 6.90918 6.94479C7.00084 6.90561 7.0966 6.87277 7.19604 6.84698L11.6084 5.70312C11.7298 5.74963 11.8236 5.81586 11.8893 5.86673C12.3157 6.19666 12.9414 6.67612 13.5435 7.13754C14.3719 7.7724 15.1559 8.37314 15.3151 8.50345C15.5818 8.70093 15.6953 8.83105 15.7507 8.91815Z" fill="#CDCDFF"/>
<path d="M15.7507 8.91815L11.0461 10.1378C10.961 9.98608 10.8416 9.89359 10.769 9.83737L10.7565 9.82767C9.68359 8.99173 7.47839 7.27768 7.24089 7.10892C7.09021 7.00186 6.97975 6.95834 6.90918 6.94479C7.00084 6.90561 7.0966 6.87277 7.19604 6.84698L11.6084 5.70312C11.7298 5.74963 11.8236 5.81586 11.8893 5.86673C12.3157 6.19666 12.9414 6.67612 13.5435 7.13754C14.3719 7.7724 15.1559 8.37314 15.3151 8.50345C15.5818 8.70093 15.6953 8.83105 15.7507 8.91815Z" fill="url(#paint30_linear_2023_987)"/>
<path d="M15.7507 8.91815L11.0461 10.1378C10.961 9.98608 10.8416 9.89359 10.769 9.83737L10.7565 9.82767C9.68359 8.99173 7.47839 7.27768 7.24089 7.10892C7.09021 7.00186 6.97975 6.95834 6.90918 6.94479C7.00084 6.90561 7.0966 6.87277 7.19604 6.84698L11.6084 5.70312C11.7298 5.74963 11.8236 5.81586 11.8893 5.86673C12.3157 6.19666 12.9414 6.67612 13.5435 7.13754C14.3719 7.7724 15.1559 8.37314 15.3151 8.50345C15.5818 8.70093 15.6953 8.83105 15.7507 8.91815Z" fill="url(#paint31_linear_2023_987)"/>
<path d="M15.7507 8.91815L11.0461 10.1378C10.961 9.98608 10.8416 9.89359 10.769 9.83737L10.7565 9.82767C9.68359 8.99173 7.47839 7.27768 7.24089 7.10892C7.09021 7.00186 6.97975 6.95834 6.90918 6.94479C7.00084 6.90561 7.0966 6.87277 7.19604 6.84698L11.6084 5.70312C11.7298 5.74963 11.8236 5.81586 11.8893 5.86673C12.3157 6.19666 12.9414 6.67612 13.5435 7.13754C14.3719 7.7724 15.1559 8.37314 15.3151 8.50345C15.5818 8.70093 15.6953 8.83105 15.7507 8.91815Z" fill="url(#paint32_linear_2023_987)"/>
<path d="M25.1318 6.49036L20.4134 7.71356C20.3199 7.54346 20.1855 7.4136 20.1091 7.35675C19.0778 6.56247 16.9497 4.92236 16.6872 4.71613C16.5358 4.5972 16.3893 4.53143 16.2749 4.49756L20.9969 3.27344C21.1748 3.36063 21.3272 3.47937 21.4552 3.5791L21.4606 3.58331C22.4971 4.39059 24.6325 6.04892 24.8825 6.22394C25.0244 6.32324 25.0975 6.41721 25.1318 6.49036Z" fill="#CDCDFF"/>
<path d="M25.1318 6.49036L20.4134 7.71356C20.3199 7.54346 20.1855 7.4136 20.1091 7.35675C19.0778 6.56247 16.9497 4.92236 16.6872 4.71613C16.5358 4.5972 16.3893 4.53143 16.2749 4.49756L20.9969 3.27344C21.1748 3.36063 21.3272 3.47937 21.4552 3.5791L21.4606 3.58331C22.4971 4.39059 24.6325 6.04892 24.8825 6.22394C25.0244 6.32324 25.0975 6.41721 25.1318 6.49036Z" fill="url(#paint33_linear_2023_987)"/>
<path d="M25.1318 6.49036L20.4134 7.71356C20.3199 7.54346 20.1855 7.4136 20.1091 7.35675C19.0778 6.56247 16.9497 4.92236 16.6872 4.71613C16.5358 4.5972 16.3893 4.53143 16.2749 4.49756L20.9969 3.27344C21.1748 3.36063 21.3272 3.47937 21.4552 3.5791L21.4606 3.58331C22.4971 4.39059 24.6325 6.04892 24.8825 6.22394C25.0244 6.32324 25.0975 6.41721 25.1318 6.49036Z" fill="url(#paint34_linear_2023_987)"/>
<path d="M25.1318 6.49036L20.4134 7.71356C20.3199 7.54346 20.1855 7.4136 20.1091 7.35675C19.0778 6.56247 16.9497 4.92236 16.6872 4.71613C16.5358 4.5972 16.3893 4.53143 16.2749 4.49756L20.9969 3.27344C21.1748 3.36063 21.3272 3.47937 21.4552 3.5791L21.4606 3.58331C22.4971 4.39059 24.6325 6.04892 24.8825 6.22394C25.0244 6.32324 25.0975 6.41721 25.1318 6.49036Z" fill="url(#paint35_linear_2023_987)"/>
<path d="M7.98145 16.7193C8.05923 16.6768 8.15472 16.6061 8.25729 16.4932C8.46327 16.2666 10.1627 14.2589 10.9866 13.2833C11.0446 13.2067 11.1496 13.0388 11.1873 12.8828H16.1095C16.0579 12.9983 15.9707 13.1635 15.8187 13.3519C15.647 13.5648 13.9734 15.5348 13.158 16.4932C13.1105 16.5491 13.0149 16.6349 12.9007 16.7193H7.98145Z" fill="#CDCDFF"/>
<path d="M7.98145 16.7193C8.05923 16.6768 8.15472 16.6061 8.25729 16.4932C8.46327 16.2666 10.1627 14.2589 10.9866 13.2833C11.0446 13.2067 11.1496 13.0388 11.1873 12.8828H16.1095C16.0579 12.9983 15.9707 13.1635 15.8187 13.3519C15.647 13.5648 13.9734 15.5348 13.158 16.4932C13.1105 16.5491 13.0149 16.6349 12.9007 16.7193H7.98145Z" fill="url(#paint36_linear_2023_987)"/>
<path d="M7.98145 16.7193C8.05923 16.6768 8.15472 16.6061 8.25729 16.4932C8.46327 16.2666 10.1627 14.2589 10.9866 13.2833C11.0446 13.2067 11.1496 13.0388 11.1873 12.8828H16.1095C16.0579 12.9983 15.9707 13.1635 15.8187 13.3519C15.647 13.5648 13.9734 15.5348 13.158 16.4932C13.1105 16.5491 13.0149 16.6349 12.9007 16.7193H7.98145Z" fill="url(#paint37_linear_2023_987)"/>
<path d="M7.98145 16.7193C8.05923 16.6768 8.15472 16.6061 8.25729 16.4932C8.46327 16.2666 10.1627 14.2589 10.9866 13.2833C11.0446 13.2067 11.1496 13.0388 11.1873 12.8828H16.1095C16.0579 12.9983 15.9707 13.1635 15.8187 13.3519C15.647 13.5648 13.9734 15.5348 13.158 16.4932C13.1105 16.5491 13.0149 16.6349 12.9007 16.7193H7.98145Z" fill="url(#paint38_linear_2023_987)"/>
<path d="M17.7827 16.7193C17.8605 16.6768 17.956 16.6061 18.0586 16.4932C18.2645 16.2666 19.9639 14.2589 20.7879 13.2833C20.8459 13.2067 20.9509 13.0388 20.9885 12.8828H25.9108C25.8592 12.9983 25.7719 13.1635 25.62 13.3519C25.4483 13.5648 23.7747 15.5348 22.9593 16.4932C22.9118 16.5491 22.8162 16.6349 22.702 16.7193H17.7827Z" fill="#CDCDFF"/>
<path d="M17.7827 16.7193C17.8605 16.6768 17.956 16.6061 18.0586 16.4932C18.2645 16.2666 19.9639 14.2589 20.7879 13.2833C20.8459 13.2067 20.9509 13.0388 20.9885 12.8828H25.9108C25.8592 12.9983 25.7719 13.1635 25.62 13.3519C25.4483 13.5648 23.7747 15.5348 22.9593 16.4932C22.9118 16.5491 22.8162 16.6349 22.702 16.7193H17.7827Z" fill="url(#paint39_linear_2023_987)"/>
<path d="M17.7827 16.7193C17.8605 16.6768 17.956 16.6061 18.0586 16.4932C18.2645 16.2666 19.9639 14.2589 20.7879 13.2833C20.8459 13.2067 20.9509 13.0388 20.9885 12.8828H25.9108C25.8592 12.9983 25.7719 13.1635 25.62 13.3519C25.4483 13.5648 23.7747 15.5348 22.9593 16.4932C22.9118 16.5491 22.8162 16.6349 22.702 16.7193H17.7827Z" fill="url(#paint40_linear_2023_987)"/>
<path d="M17.7827 16.7193C17.8605 16.6768 17.956 16.6061 18.0586 16.4932C18.2645 16.2666 19.9639 14.2589 20.7879 13.2833C20.8459 13.2067 20.9509 13.0388 20.9885 12.8828H25.9108C25.8592 12.9983 25.7719 13.1635 25.62 13.3519C25.4483 13.5648 23.7747 15.5348 22.9593 16.4932C22.9118 16.5491 22.8162 16.6349 22.702 16.7193H17.7827Z" fill="url(#paint41_linear_2023_987)"/>
<defs>
<linearGradient id="paint0_linear_2023_987" x1="4.50796" y1="22.2182" x2="6.85171" y2="22.2182" gradientUnits="userSpaceOnUse">
<stop stop-color="#473850"/>
<stop offset="1" stop-color="#3F314A"/>
</linearGradient>
<linearGradient id="paint1_linear_2023_987" x1="5.78922" y1="30.0932" x2="5.78922" y2="28.0619" gradientUnits="userSpaceOnUse">
<stop stop-color="#5F75A6"/>
<stop offset="1" stop-color="#443C61" stop-opacity="0"/>
</linearGradient>
<linearGradient id="paint2_linear_2023_987" x1="6.05484" y1="16.7187" x2="6.05484" y2="17.3432" gradientUnits="userSpaceOnUse">
<stop stop-color="#1E0F2A"/>
<stop offset="1" stop-color="#45374F" stop-opacity="0"/>
</linearGradient>
<linearGradient id="paint3_linear_2023_987" x1="17.285" y1="17.8917" x2="17.285" y2="29.8726" gradientUnits="userSpaceOnUse">
<stop stop-color="#7B638E"/>
<stop offset="0.875651" stop-color="#8180C8"/>
</linearGradient>
<linearGradient id="paint4_linear_2023_987" x1="6.63821" y1="22.8559" x2="7.46789" y2="22.8559" gradientUnits="userSpaceOnUse">
<stop stop-color="#553766"/>
<stop offset="0.494568" stop-color="#553766" stop-opacity="0.418487"/>
<stop offset="0.9" stop-color="#553766" stop-opacity="0.0622717"/>
<stop offset="1" stop-color="#553766" stop-opacity="0"/>
</linearGradient>
<radialGradient id="paint5_radial_2023_987" cx="0" cy="0" r="1" gradientUnits="userSpaceOnUse" gradientTransform="translate(6.61678 29.7608) rotate(-40.914) scale(1.70841 7.35724)">
<stop stop-color="#553766"/>
<stop offset="0.821184" stop-color="#553766" stop-opacity="0.125046"/>
<stop offset="0.901564" stop-color="#553766" stop-opacity="0.04"/>
<stop offset="1" stop-color="#553766" stop-opacity="0"/>
</radialGradient>
<linearGradient id="paint6_linear_2023_987" x1="6.64551" y1="26.6557" x2="7.20482" y2="26.6557" gradientUnits="userSpaceOnUse">
<stop offset="0.16742" stop-color="#5F5691"/>
<stop offset="1" stop-color="#5F5691" stop-opacity="0"/>
</linearGradient>
<radialGradient id="paint7_radial_2023_987" cx="0" cy="0" r="1" gradientUnits="userSpaceOnUse" gradientTransform="translate(25.3559 17.0891) rotate(90) scale(0.378907 23.3293)">
<stop stop-color="#857498"/>
<stop offset="0.346439" stop-color="#857498" stop-opacity="0.749642"/>
<stop offset="0.692334" stop-color="#857498" stop-opacity="0.231668"/>
<stop offset="1" stop-color="#857498" stop-opacity="0"/>
</radialGradient>
<linearGradient id="paint8_linear_2023_987" x1="17.285" y1="16.7188" x2="17.285" y2="29.8726" gradientUnits="userSpaceOnUse">
<stop offset="0.919029" stop-color="#667AC9" stop-opacity="0"/>
<stop offset="0.955878" stop-color="#667AC9" stop-opacity="0.151377"/>
<stop offset="0.984461" stop-color="#667AC9"/>
</linearGradient>
<radialGradient id="paint9_radial_2023_987" cx="0" cy="0" r="1" gradientUnits="userSpaceOnUse" gradientTransform="translate(27.3904 29.2742) rotate(-137.022) scale(1.3848 8.29073)">
<stop stop-color="#667AC9"/>
<stop offset="0.301776" stop-color="#667AC9" stop-opacity="0.151377"/>
<stop offset="0.919029" stop-color="#667AC9" stop-opacity="0"/>
</radialGradient>
<radialGradient id="paint10_radial_2023_987" cx="0" cy="0" r="1" gradientUnits="userSpaceOnUse" gradientTransform="translate(7.53019 29.6167) rotate(-39.5424) scale(1.27418 7.62843)">
<stop stop-color="#667AC9"/>
<stop offset="0.169116" stop-color="#667AC9" stop-opacity="0.366344"/>
<stop offset="0.251118" stop-color="#667AC9" stop-opacity="0.151377"/>
<stop offset="0.919029" stop-color="#667AC9" stop-opacity="0"/>
</radialGradient>
<linearGradient id="paint11_linear_2023_987" x1="17.285" y1="16.7188" x2="17.285" y2="17.04" gradientUnits="userSpaceOnUse">
<stop stop-color="#59386F"/>
<stop offset="0.802083" stop-color="#59386F" stop-opacity="0.0833333"/>
<stop offset="1" stop-color="#59386F" stop-opacity="0"/>
</linearGradient>
<linearGradient id="paint12_linear_2023_987" x1="4.47671" y1="16.4375" x2="6.60172" y2="14.3437" gradientUnits="userSpaceOnUse">
<stop stop-color="#45374F"/>
<stop offset="1" stop-color="#3F3148"/>
</linearGradient>
<linearGradient id="paint13_linear_2023_987" x1="6.38297" y1="16.7193" x2="6.38297" y2="16.2812" gradientUnits="userSpaceOnUse">
<stop stop-color="#22112E"/>
<stop offset="1" stop-color="#3D2E49" stop-opacity="0"/>
</linearGradient>
<linearGradient id="paint14_linear_2023_987" x1="17.285" y1="14.3438" x2="17.285" y2="16.7193" gradientUnits="userSpaceOnUse">
<stop stop-color="#8F6DBD"/>
<stop offset="1" stop-color="#8661B9"/>
</linearGradient>
<linearGradient id="paint15_linear_2023_987" x1="17.285" y1="13.0362" x2="17.285" y2="13.4663" gradientUnits="userSpaceOnUse">
<stop offset="0.00875693" stop-color="#9C81C5" stop-opacity="0"/>
<stop offset="0.219562" stop-color="#9C81C5" stop-opacity="0.455546"/>
<stop offset="0.417996" stop-color="#9C81C5"/>
<stop offset="0.586067" stop-color="#9C81C5"/>
<stop offset="0.734452" stop-color="#9C81C5" stop-opacity="0.65"/>
<stop offset="0.869792" stop-color="#9C81C5" stop-opacity="0.21673"/>
<stop offset="1" stop-color="#9C81C5" stop-opacity="0"/>
</linearGradient>
<linearGradient id="paint16_linear_2023_987" x1="17.285" y1="12.8828" x2="17.285" y2="13.4277" gradientUnits="userSpaceOnUse">
<stop stop-color="#6E4D9A"/>
<stop offset="1" stop-color="#6E4D9A" stop-opacity="0"/>
</linearGradient>
<linearGradient id="paint17_linear_2023_987" x1="17.285" y1="16.1712" x2="17.285" y2="16.7193" gradientUnits="userSpaceOnUse">
<stop stop-color="#7450AE" stop-opacity="0"/>
<stop offset="0.707618" stop-color="#7450AE"/>
</linearGradient>
<linearGradient id="paint18_linear_2023_987" x1="7.11103" y1="14.9463" x2="6.7669" y2="14.9463" gradientUnits="userSpaceOnUse">
<stop stop-color="#7450AE" stop-opacity="0"/>
<stop offset="0.332928" stop-color="#7450AE" stop-opacity="0.253469"/>
<stop offset="1" stop-color="#7450AE"/>
</linearGradient>
<linearGradient id="paint19_linear_2023_987" x1="5.66412" y1="11.6871" x2="4.78912" y2="7.59335" gradientUnits="userSpaceOnUse">
<stop stop-color="#483751"/>
<stop offset="1" stop-color="#514257"/>
</linearGradient>
<linearGradient id="paint20_linear_2023_987" x1="5.57037" y1="6.96835" x2="5.97662" y2="8.78085" gradientUnits="userSpaceOnUse">
<stop stop-color="#947397"/>
<stop offset="1" stop-color="#5B4860" stop-opacity="0"/>
</linearGradient>
<linearGradient id="paint21_linear_2023_987" x1="19.6952" y1="3.8121" x2="18.6015" y2="8.03085" gradientUnits="userSpaceOnUse">
<stop stop-color="#8D74BA"/>
<stop offset="1" stop-color="#8A6EB8"/>
</linearGradient>
<linearGradient id="paint22_linear_2023_987" x1="27.1102" y1="4.45616" x2="26.6392" y2="4.58725" gradientUnits="userSpaceOnUse">
<stop offset="0.138153" stop-color="#9F8AC9"/>
<stop offset="0.681916" stop-color="#9F8AC9" stop-opacity="0.208692"/>
<stop offset="1" stop-color="#9F8AC9" stop-opacity="0"/>
</linearGradient>
<radialGradient id="paint23_radial_2023_987" cx="0" cy="0" r="1" gradientUnits="userSpaceOnUse" gradientTransform="translate(26.4876 2.90385) rotate(114.444) scale(0.607549 2.54625)">
<stop offset="0.138153" stop-color="#9F8AC9"/>
<stop offset="0.681916" stop-color="#9F8AC9" stop-opacity="0.208692"/>
<stop offset="1" stop-color="#9F8AC9" stop-opacity="0"/>
</radialGradient>
<linearGradient id="paint24_linear_2023_987" x1="17.3377" y1="8.58745" x2="17.1709" y2="7.94795" gradientUnits="userSpaceOnUse">
<stop offset="0.260018" stop-color="#7450AE"/>
<stop offset="0.799126" stop-color="#7450AE" stop-opacity="0.224434"/>
<stop offset="1" stop-color="#7450AE" stop-opacity="0"/>
</linearGradient>
<linearGradient id="paint25_linear_2023_987" x1="5.91177" y1="10.0281" x2="6.40637" y2="9.89026" gradientUnits="userSpaceOnUse">
<stop offset="0.394223" stop-color="#7450AE"/>
<stop offset="0.774759" stop-color="#7450AE" stop-opacity="0.224434"/>
<stop offset="0.916667" stop-color="#7450AE" stop-opacity="0.0830346"/>
<stop offset="1" stop-color="#7450AE" stop-opacity="0"/>
</linearGradient>
<radialGradient id="paint26_radial_2023_987" cx="0" cy="0" r="1" gradientUnits="userSpaceOnUse" gradientTransform="translate(5.70677 8.07215) rotate(10.2222) scale(0.529427 4.13962)">
<stop offset="0.09266" stop-color="#7450AE"/>
<stop offset="0.737637" stop-color="#7450AE" stop-opacity="0.224434"/>
<stop offset="0.859375" stop-color="#7450AE" stop-opacity="0.0801967"/>
<stop offset="1" stop-color="#7450AE" stop-opacity="0"/>
</radialGradient>
<radialGradient id="paint27_radial_2023_987" cx="0" cy="0" r="1" gradientUnits="userSpaceOnUse" gradientTransform="translate(5.99412 7.32131) rotate(38.88) scale(0.755905 5.91046)">
<stop offset="0.09266" stop-color="#7450AE"/>
<stop offset="0.737637" stop-color="#7450AE" stop-opacity="0.224434"/>
<stop offset="0.859375" stop-color="#7450AE" stop-opacity="0.0801967"/>
<stop offset="1" stop-color="#7450AE" stop-opacity="0"/>
</radialGradient>
<linearGradient id="paint28_linear_2023_987" x1="15.6372" y1="4.69827" x2="15.742" y2="5.09827" gradientUnits="userSpaceOnUse">
<stop offset="0.204119" stop-color="#765EA2"/>
<stop offset="0.753349" stop-color="#765EA2" stop-opacity="0.255507"/>
<stop offset="1" stop-color="#765EA2" stop-opacity="0"/>
</linearGradient>
<linearGradient id="paint29_linear_2023_987" x1="5.76456" y1="10.4322" x2="6.36838" y2="10.2828" gradientUnits="userSpaceOnUse">
<stop offset="0.138153" stop-color="#9F8AC9"/>
<stop offset="0.681916" stop-color="#9F8AC9" stop-opacity="0.208692"/>
<stop offset="1" stop-color="#9F8AC9" stop-opacity="0"/>
</linearGradient>
<linearGradient id="paint30_linear_2023_987" x1="11.2887" y1="5.66948" x2="11.4334" y2="6.22341" gradientUnits="userSpaceOnUse">
<stop offset="0.28396" stop-color="#B2B9FF"/>
<stop offset="0.628009" stop-color="#B2B9FF" stop-opacity="0.622034"/>
<stop offset="1" stop-color="#B2B9FF" stop-opacity="0"/>
</linearGradient>
<linearGradient id="paint31_linear_2023_987" x1="11.6142" y1="10.0704" x2="11.4614" y2="9.46548" gradientUnits="userSpaceOnUse">
<stop offset="0.384" stop-color="#B6BDFF"/>
<stop offset="0.776809" stop-color="#B6BDFF" stop-opacity="0.180449"/>
<stop offset="1" stop-color="#B6BDFF" stop-opacity="0"/>
</linearGradient>
<linearGradient id="paint32_linear_2023_987" x1="11.2028" y1="5.92925" x2="11.3338" y2="6.42383" gradientUnits="userSpaceOnUse">
<stop offset="0.00875693" stop-color="#D3D4FF" stop-opacity="0"/>
<stop offset="0.250757" stop-color="#D3D4FF" stop-opacity="0.455546"/>
<stop offset="0.417996" stop-color="#D3D4FF" stop-opacity="0.59"/>
<stop offset="0.562276" stop-color="#D3D4FF" stop-opacity="0.65"/>
<stop offset="0.730349" stop-color="#D3D4FF" stop-opacity="0.46"/>
<stop offset="1" stop-color="#D3D4FF" stop-opacity="0"/>
</linearGradient>
<linearGradient id="paint33_linear_2023_987" x1="20.6621" y1="3.23975" x2="20.8068" y2="3.7944" gradientUnits="userSpaceOnUse">
<stop offset="0.28396" stop-color="#B2B9FF"/>
<stop offset="0.628009" stop-color="#B2B9FF" stop-opacity="0.622034"/>
<stop offset="1" stop-color="#B2B9FF" stop-opacity="0"/>
</linearGradient>
<linearGradient id="paint34_linear_2023_987" x1="20.9881" y1="7.64605" x2="20.8352" y2="7.04039" gradientUnits="userSpaceOnUse">
<stop offset="0.384" stop-color="#B6BDFF"/>
<stop offset="0.776809" stop-color="#B6BDFF" stop-opacity="0.180449"/>
<stop offset="1" stop-color="#B6BDFF" stop-opacity="0"/>
</linearGradient>
<linearGradient id="paint35_linear_2023_987" x1="20.576" y1="3.49984" x2="20.7071" y2="3.99506" gradientUnits="userSpaceOnUse">
<stop offset="0.00875693" stop-color="#D3D4FF" stop-opacity="0"/>
<stop offset="0.250757" stop-color="#D3D4FF" stop-opacity="0.455546"/>
<stop offset="0.417996" stop-color="#D3D4FF" stop-opacity="0.59"/>
<stop offset="0.562276" stop-color="#D3D4FF" stop-opacity="0.65"/>
<stop offset="0.730349" stop-color="#D3D4FF" stop-opacity="0.46"/>
<stop offset="1" stop-color="#D3D4FF" stop-opacity="0"/>
</linearGradient>
<linearGradient id="paint36_linear_2023_987" x1="12.1665" y1="12.8828" x2="12.1665" y2="13.2652" gradientUnits="userSpaceOnUse">
<stop offset="0.28396" stop-color="#B2B9FF"/>
<stop offset="0.628009" stop-color="#B2B9FF" stop-opacity="0.622034"/>
<stop offset="1" stop-color="#B2B9FF" stop-opacity="0"/>
</linearGradient>
<linearGradient id="paint37_linear_2023_987" x1="12.1665" y1="16.711" x2="12.1665" y2="16.1376" gradientUnits="userSpaceOnUse">
<stop offset="0.384" stop-color="#B6ADFF"/>
<stop offset="0.776809" stop-color="#B6ADFF" stop-opacity="0.180449"/>
<stop offset="1" stop-color="#B6ADFF" stop-opacity="0"/>
</linearGradient>
<linearGradient id="paint38_linear_2023_987" x1="12.0455" y1="13.049" x2="12.0455" y2="13.4663" gradientUnits="userSpaceOnUse">
<stop offset="0.00875693" stop-color="#D3D4FF" stop-opacity="0"/>
<stop offset="0.204664" stop-color="#D3D4FF" stop-opacity="0.455546"/>
<stop offset="0.417996" stop-color="#D3D4FF"/>
<stop offset="0.586067" stop-color="#D3D4FF"/>
<stop offset="0.705101" stop-color="#D3D4FF" stop-opacity="0.639677"/>
<stop offset="1" stop-color="#D3D4FF" stop-opacity="0"/>
</linearGradient>
<linearGradient id="paint39_linear_2023_987" x1="21.9678" y1="12.8828" x2="21.9678" y2="13.2652" gradientUnits="userSpaceOnUse">
<stop offset="0.28396" stop-color="#B2B9FF"/>
<stop offset="0.628009" stop-color="#B2B9FF" stop-opacity="0.622034"/>
<stop offset="1" stop-color="#B2B9FF" stop-opacity="0"/>
</linearGradient>
<linearGradient id="paint40_linear_2023_987" x1="21.9678" y1="16.711" x2="21.9678" y2="16.1376" gradientUnits="userSpaceOnUse">
<stop offset="0.384" stop-color="#B6ADFF"/>
<stop offset="0.776809" stop-color="#B6ADFF" stop-opacity="0.180449"/>
<stop offset="1" stop-color="#B6ADFF" stop-opacity="0"/>
</linearGradient>
<linearGradient id="paint41_linear_2023_987" x1="21.8467" y1="13.049" x2="21.8467" y2="13.4663" gradientUnits="userSpaceOnUse">
<stop offset="0.00875693" stop-color="#D3D4FF" stop-opacity="0"/>
<stop offset="0.204664" stop-color="#D3D4FF" stop-opacity="0.455546"/>
<stop offset="0.417996" stop-color="#D3D4FF"/>
<stop offset="0.586067" stop-color="#D3D4FF"/>
<stop offset="0.705101" stop-color="#D3D4FF" stop-opacity="0.639677"/>
<stop offset="1" stop-color="#D3D4FF" stop-opacity="0"/>
</linearGradient>
</defs>
</svg>
