<svg width="61" height="60" viewBox="0 0 61 60" fill="none" xmlns="http://www.w3.org/2000/svg">
<path d="M38.1674 9.375H47.542C48.0393 9.375 48.5162 9.57254 48.8678 9.92418C49.2194 10.2758 49.417 10.7527 49.417 11.25V50.625C49.417 51.1223 49.2194 51.5992 48.8678 51.9508C48.5162 52.3025 48.0393 52.5 47.542 52.5H13.792C13.2947 52.5 12.8178 52.3025 12.4662 51.9508C12.1145 51.5992 11.917 51.1223 11.917 50.625V11.25C11.917 10.7527 12.1145 10.2758 12.4662 9.92418C12.8178 9.57254 13.2947 9.375 13.792 9.375H23.1665" fill="#E2D7FA"/>
<path d="M23.167 38.125H38.167" stroke="#6F36E8" stroke-width="2" stroke-linecap="round" stroke-linejoin="round"/>
<path d="M23.167 28.125H38.167" stroke="#6F36E8" stroke-width="2" stroke-linecap="round" stroke-linejoin="round"/>
<path d="M23.167 16.875C22.1315 16.875 21.292 16.0355 21.292 15C21.292 12.5136 22.2797 10.129 24.0379 8.37087C25.796 6.61272 28.1806 5.625 30.667 5.625C33.1534 5.625 35.538 6.61272 37.2961 8.37087C39.0543 10.129 40.042 12.5136 40.042 15C40.042 16.0355 39.2025 16.875 38.167 16.875H23.167Z" fill="#B79AF4"/>
</svg>
