<svg width="60" height="60" viewBox="0 0 60 60" fill="none" xmlns="http://www.w3.org/2000/svg">
<path d="M45 37.4999C47.4864 37.4999 49.871 36.5122 51.6291 34.754C53.3873 32.9959 54.375 30.6113 54.375 28.1249C54.375 25.6385 53.3873 23.2539 51.6291 21.4958C49.871 19.7376 47.4864 18.7499 45 18.7499H35.625C35.625 18.7499 22.8629 18.7499 10.5818 8.44967C10.3086 8.21978 9.97555 8.07267 9.62166 8.02563C9.26777 7.97858 8.90781 8.03357 8.5841 8.18412C8.26039 8.33466 7.98641 8.57451 7.79436 8.87546C7.60231 9.1764 7.50019 9.52593 7.5 9.88293V46.3669C7.50019 46.7239 7.60231 47.0734 7.79436 47.3743C7.98641 47.6753 8.26039 47.9151 8.5841 48.0657C8.90781 48.2162 9.26777 48.2712 9.62166 48.2242C9.97555 48.1771 10.3086 48.03 10.5818 47.8001C22.8629 37.4999 35.625 37.4999 35.625 37.4999H45Z" fill="#6F36E8" fill-opacity="0.2"/>
<path d="M36 18.75L35.625 47.7465C35.625 48.0552 35.7012 48.3591 35.8469 48.6313C35.9925 48.9034 36.2031 49.1354 36.4599 49.3066L39.0362 51.0241C39.2862 51.1908 39.5726 51.295 39.8713 51.3278C40.17 51.3607 40.4721 51.3213 40.7524 51.2129C41.0327 51.1046 41.2828 50.9304 41.4817 50.7052C41.6806 50.48 41.8224 50.2103 41.8953 49.9188L45 37.5" fill="#B79AF4"/>
</svg>
