<svg version="1.2" xmlns="http://www.w3.org/2000/svg" viewBox="0 0 1920 1080" width="600" height="338">
	<title>모아 로고 벡터파일 저장용-ai</title>
	<style>
		.s0 { fill: #654299 } 
		.s1 { fill: #66429a } 
		.s2 { fill: #67439a } 
		.s3 { fill: #0b0b0b } 
	</style>
	<g id="Layer 1">
		<path id="&lt;Path&gt;" class="s0" d="m1336.1 459c-0.2 16.1-2.7 31.8-6.6 47.4-1.2 4.5-2.4 5.8-7.4 3.5-44.4-20.2-89-40-133.4-60.2-16.9-7.7-30.8 0.7-37.4 12.3-4 7.1-3.2 14.3-0.9 21.8 12.2 39.5 24.4 79.1 36.5 118.7 2.9 9.3 5.7 18.8 8.7 28.1 1.2 3.4 1.2 4.8-3.2 5.7-54.2 10.9-104.1 0.8-148.4-32.3-42.6-31.8-66.4-74.9-72.3-127.8-10.2-91.4 51.6-176.5 141.7-196.5 106.4-23.6 209.2 49.8 221.1 158.1 0.8 7.1 1.1 14.2 1.6 21.2z"/>
		<path id="&lt;Path&gt;" class="s1" d="m609.9 387.2q0 3.2 0 6.4 0 123.4 0 246.7c0 16.8-8.4 30-22.5 33.7-23.1 6.1-42.3-6.4-42.4-30.6-0.5-113.4-0.2-226.8-0.3-340.1 0-15.8 9-24.7 22.5-30 17.2-6.9 34.3-5.3 51 2.3 6.6 3 10.6 8.5 13.9 14.8 29.6 57.9 59.4 115.6 89.2 173.4 0.8 1.6 1.6 3.1 2.9 5.6 1.6-3 2.9-5.4 4.2-7.9q43.5-83.6 86.9-167.2c11.3-21.6 28.1-29.8 52.1-25 12.2 2.5 23.4 7.1 31.9 16.7 4.5 4.9 6.6 10.6 6.6 17.2 0 13.6 0 27.2 0 40.8 0 98.8 0 197.6 0.1 296.4 0 9.3-2.6 17.4-8.4 24.6-8 9.9-23.1 13.2-37.3 8.4-11.7-4-20.6-16.6-20.7-30.3-0.2-23.1-0.1-46.1 0.1-69.2 0.7-61.3 1.4-122.6 2.1-184 0-1.3 0-2.6-0.9-4.3-1 1.8-2.1 3.5-3 5.3-28.4 54.4-56.8 108.9-85.3 163.4-4.5 8.7-9.4 17-20.4 18.7-17.1 2.8-27.5-2.2-35.4-17.6-27.8-54.4-55.4-108.9-83.1-163.3-0.9-1.7-1.8-3.4-2.7-5.1q-0.5 0.1-1.1 0.2z"/>
		<path id="&lt;Path&gt;" class="s2" d="m1370.7 463.7c0.1 16.2-3.1 37.3-9.2 58.1-1.2 4-2.6 5.1-6.5 2.9-4.8-2.6-11.9-3.6-14.1-7.5-1.8-3.5 2.1-9.9 3.2-15 12.9-62.3 0.8-119.1-39.7-168.3-44.8-54.5-103.8-78.6-173.5-70.4-75.9 8.9-130.7 50.4-159 121.2-28.8 72-16.9 140 32.6 200.1 31.2 37.9 72.3 59.2 120.7 66.6 24 3.7 47.9 2.5 71.5-2.8 3.3-0.8 4.6-0.5 5.3 2.9 0.7 3.9 1.6 7.8 3.4 11.2 3 5.7 0.6 6.6-4.5 7.7-16.3 3.3-32.6 4.7-49.3 4.8-99.3 0.4-190.7-71.3-211.1-173.3-23.2-116.2 46.5-220.8 150.1-252.1 126.6-38.3 257.9 44.8 277.8 175.4 1.7 10.9 2.3 22 2.3 38.5z"/>
		<path id="&lt;Compound Path&gt;" fill-rule="evenodd" class="s1" d="m1367.3 597.6c-5.4-0.3-12-3.2-18.2-7.1-12.4-7.8-13.7-7.9-24.4 1.3-18.9 16-37.5 32.3-56.2 48.4-2.4 2.1-2.2 4.6-1.3 7 1.8 5.3 4 10.5 5.8 15.8 3.4 10.2 4.4 20.2-3 29.1-6.8 8.3-15.7 11.5-26.4 9.3-10.1-2.2-15.3-9.4-18.1-18.4-13.7-44.7-27.1-89.4-40.6-134.1-4.6-15-9.1-30.1-13.9-45.1-3.5-11.3-2.1-21.2 7.1-29.1 9.3-7.8 19.4-8.9 30.7-3.7 54.3 24.5 108.7 48.9 163.1 73.2 5.2 2.4 10.5 4.3 14.9 8.2 8.6 7.5 11.2 18.1 6.9 28.9-4 10.3-13.4 16.6-26.4 16.3zm-137.6-65.5c-0.2 0.8-0.5 1.3-0.4 1.5 6.9 20.8 13.9 41.5 20.8 62.2 0.9 2.7 2.1 2.2 3.7 0.7 11.9-10.4 23.7-20.8 35.6-31.1 2.7-2.3 2.3-3.5-0.7-4.9-6.8-3.2-13.5-6.6-20.2-9.8-12.9-6.2-25.8-12.4-38.8-18.6z"/>
		<path id="&lt;Path&gt;" class="s3" d="m599.5 783.2c-3 8.6-6.1 17.3-9.2 25.9-2.4 6.8-7.4 10.1-15.4 10.2-7.5 0.1-11.7-2.8-14.2-10-3.4-9.5-6.7-19.1-11.1-28.5q0 21.9 0 43.8c0 9.3-2.2 11.8-11.4 13-1.6 0.2-3.1 0.3-4.7 0.4-12.2 0.2-14.5-2.1-14.6-14.1q-0.1-44.9-0.2-89.9c-0.1-10.7 2.6-14.4 11.9-16.4 10.8-2.4 19 1 22.7 9.8 6.9 16.7 13.6 33.5 20.5 50.3 2-0.4 1.9-2.3 2.4-3.5q9.8-22.7 19.6-45.5c5.3-12.3 24.6-16.3 34.4-7.1 2.6 2.5 3.7 5.5 3.6 9-0.5 32.3-0.9 64.7-1.4 97-0.1 5.1-2.6 8.5-7.8 9.5-2.1 0.5-4.3 0.9-6.4 1-14.8 0.6-17.6-2.1-17.6-16.8q0-18.9 0-37.8-0.5-0.2-1.1-0.3z"/>
		<path id="&lt;Path&gt;" class="s3" d="m981.6 764.7c5.9 0 11.8-0.2 17.8 0 9.1 0.3 14.2 5.4 14.3 14.5 0 7.6 0.3 15.3-1.3 22.9-3.6 17.3-13.3 28.9-30.5 34.1-11.9 3.6-24 4.4-36.1 1.8-14.5-3.1-25.5-11.2-31.9-24.8-7.8-16.3-10-33.6-6.2-51.2 6-28.5 27-44.8 56.2-44.7 12.1 0.1 23.8 2.5 34.5 8.5 9.4 5.4 11.6 11.9 6.6 19.3-5.8 8.5-18.6 12.3-24.5 6.4-3.3-3.3-7.6-5-12.2-5.6-14.6-1.9-23.2 4.2-26 19-2.1 10.7-2.3 21.6 1.3 32.1 4.5 12.9 18.4 17.5 29.9 10.1 1.8-1.2 3.4-2.7 4.5-4.6 1.4-2.9 3-6.3 1.5-9-1.2-2.4-4.7-0.7-7.1-0.8-1.8-0.1-3.6 0.1-5.4 0.2-5.3 0.3-10.5-0.2-13.1-5.8-2.7-5.8-2.7-11.8 0.8-17.5 2-3.1 5-4.3 8.6-4.3 6.5-0.5 12.2-0.6 18.3-0.6 0-0.2 0 0.2 0 0z"/>
		<path id="&lt;Compound Path&gt;" fill-rule="evenodd" class="s3" d="m753.2 777.3c0 7.9-0.7 15.3-2.3 22.6-6.4 29.4-28.1 41-55.3 38.8-26.5-2.1-43.1-18.7-47.6-45.9-2.3-13.4-1.4-26.8 2.4-39.8 5.6-19.6 18.3-31.9 38.8-34.7 29.4-4.1 51.9 5.4 61.1 34.9 2.4 7.9 3.2 16.2 2.9 24.1zm-69.7 0.7c-0.1 7.9 0.5 15.8 3.8 23.1 2.5 5.6 6.5 9.2 13.2 9 6.6-0.2 10.7-3.9 12.5-9.8 4.8-14.8 5-29.8 0.5-44.6-2.1-7.1-6.5-10-12.9-10.1-6.8-0.1-11.1 2.9-13.8 9.8-2.9 7.2-3.2 14.9-3.3 22.6z"/>
		<path id="&lt;Compound Path&gt;" fill-rule="evenodd" class="s3" d="m1205.2 777.9c0-15.3 0-30.7 0-46.1 0-8.8 3.6-13.4 12.5-13.9 16.1-1 32.3-0.9 48.1 3.5 17.8 4.9 29.2 16.3 33.4 34.5 2.9 12.6 3.8 25.3 1.2 38-4.6 23.5-20.4 36-42.3 41.8-11.9 3.1-24.1 4.2-36.3 3.6-12.5-0.5-16.6-4.8-16.6-17q0-22.2 0-44.4zm35.6 0c-0.1 0 0.1 0 0 0 0 9.2 0 18.5-0.4 27.7-0.2 4.7 1.7 5.1 5.4 4.4 9.4-2 16-7.1 18.7-16.6 2.6-9.5 2.1-19.1 0.7-28.6-1.9-12.7-7.2-17.2-20-19.4-4.3-0.7-4.5 0.9-4.5 4.2z"/>
		<path id="&lt;Path&gt;" class="s3" d="m1027.8 764.7c0-11.8-0.1-23.6 0-35.5 0.1-7.4 2.6-10.1 9.7-11.7 6-1.5 11.8-0.9 17.6 0.3 6.1 1.2 8.3 4.4 8.2 11.7-0.1 22-0.3 44.1-0.3 66.2 0 12.1 8.5 18.3 20.3 15 6.4-1.8 9.4-6.2 9.5-14.5 0.3-21.7 0.6-43.4 0.9-65.1 0.2-10.6 3.2-13.4 13.9-13.5 4.7 0 9.5-0.3 14 1.4 4.7 1.7 7.8 4.7 7.7 10-0.6 24.4-0.6 48.9-2.1 73.2-1.3 20.3-11.7 31.2-31.8 35.5-13.5 2.9-27 2.4-40.3-1.4-17.6-5.1-27-17.6-27.5-36.7-0.3-11.6 0-23.3 0-34.9q0.1 0 0.2 0z"/>
		<path id="&lt;Path&gt;" class="s3" d="m1316.2 776.8c0-14.8-0.1-29.5 0-44.3 0.1-8.6 4.1-13.5 12.8-13.7 20.8-0.4 41.7-0.3 62.6-0.4 4.7 0 7.4 2.8 8.3 7 0.9 4 0.9 8.2-0.1 12.3-1.4 4.9-4.4 7.6-9.8 7.5-11.3-0.1-22.5 0.1-33.7-0.1-3.4-0.1-4.7 0.6-4.8 4.4-0.1 14-0.3 14 13.4 14 7.5 0 15-0.1 22.5 0 6.7 0.1 9.1 2.5 9.5 9.3q0 0.3 0 0.5c0.6 14.9-0.8 16.4-15.5 16.4-8.5 0-17 0.1-25.5 0-3-0.1-4.7 0.4-4.4 4 0.3 5.7-1.9 13.1 0.9 16.6 3 3.7 10.7 0.8 16.3 1 7.3 0.2 14.6-0.1 21.9-0.1 7.6 0.1 10.1 2.6 10.6 10.3 0.2 2 0.2 3.9 0.1 5.9-0.7 8.7-3.1 10.9-11.9 10.9-17.2 0-34.3 0-51.4 0-3-0.1-6-0.1-8.8-0.7-9.4-1.7-12.9-5.8-13-15.3-0.1-15.1 0-30.3 0-45.5q0 0 0 0z"/>
		<path id="&lt;Compound Path&gt;" fill-rule="evenodd" class="s3" d="m813.5 720.1c2.6 0 5.2-0.3 7.7 0 6.8 0.8 11.6 3.3 14.2 10.9 10.2 30.1 21.2 60 31.9 90 2.7 7.4 1.2 10.6-6.1 13.7-4.4 1.9-9.1 2.9-13.7 3.4-8.8 0.9-12.5-1.9-15.3-10.3-1.7-5.1-1.3-12.4-5.5-15-3.9-2.3-10.3-0.4-15.6-0.3-14.1 0.2-14.1 0.3-18.5 13.3-3.3 9.8-6.2 11.9-16.4 11.3-3.2-0.2-6.3-0.7-9.3-1.5-9.4-2.6-11.6-7.1-8-16.3 11.1-28.9 22.7-57.7 33.2-86.9 3.3-9.4 8.9-12.7 17.9-12.5 1.2 0 2.4 0 3.5 0q0 0.1 0 0.2zm-0.3 43.5c-1.4 4.3-2.4 7.3-3.3 10.2-3.8 11.3-3.8 11.3 8.3 10.2 0.3 0 0.6-0.4 0.9-0.6-1.8-6.2-3.6-12.3-5.9-19.8z"/>
		<path id="&lt;Path&gt;" class="s3" d="m1148.2 778.5c0-15.7 0.4-31.5 0.4-47.3 0.1-8.9 3.1-12.2 11.8-14 5.4-1.1 10.7-0.2 15.8 1 5.8 1.5 8.9 5.5 8.8 11.7q-0.8 48.8-1.5 97.5c-0.1 5.5-2.8 8.8-8.3 9.8-6.3 1.2-12.5 1.3-18.7 0.1-5.8-1.1-8.4-4.4-8.4-10.3 0.2-16.1 0.1-32.3 0.1-48.5 0.1 0-0.2 0 0 0z"/>
	</g>
</svg>